<?xml version="1.0" encoding="UTF-8"?>
<svg version="1.1" xmlns="http://www.w3.org/2000/svg" width="1024" height="1024">
<path d="M0 0 C1.98598415 -0.00302526 3.97196714 -0.00691662 5.95794809 -0.01159257 C11.38328377 -0.0218332 16.80855308 -0.0197008 22.23389411 -0.01541197 C28.09775989 -0.01293754 33.96160999 -0.02196788 39.82546997 -0.02944946 C51.30185818 -0.04217919 62.77822297 -0.04399225 74.25461705 -0.0416492 C83.58763797 -0.03986372 92.92065336 -0.04158376 102.25367355 -0.04587364 C103.59716123 -0.04647606 104.94064891 -0.04707726 106.28413659 -0.04767724 C108.30895926 -0.04858456 110.33378193 -0.04949323 112.35860459 -0.0504096 C131.17274327 -0.05883319 149.98687937 -0.063179 168.80101967 -0.05900288 C169.50952972 -0.0588465 170.21803977 -0.05869012 170.94801983 -0.05852901 C174.53856576 -0.0577233 178.12911169 -0.05687752 181.71965761 -0.05601571 C182.43267783 -0.05584462 183.14569804 -0.05567353 183.88032493 -0.05549726 C185.32222405 -0.0551506 186.76412317 -0.05480207 188.20602229 -0.05445167 C210.6307211 -0.04909717 233.05538055 -0.05701963 255.48007202 -0.07548523 C280.70877504 -0.09623575 305.93745369 -0.10692201 331.16616571 -0.10290974 C333.86021129 -0.10251444 336.55425687 -0.10215288 339.24830246 -0.10181236 C340.24322106 -0.10167627 340.24322106 -0.10167627 341.25823902 -0.10153742 C351.23927477 -0.100375 361.22028316 -0.10702933 371.20131302 -0.11762428 C382.56403832 -0.12956426 393.92670575 -0.13091376 405.28943188 -0.11883412 C411.08025648 -0.11296342 416.87097533 -0.11179569 422.66179276 -0.12383652 C427.97552909 -0.13475636 433.28907218 -0.13152003 438.6027997 -0.11757483 C440.51254938 -0.11494457 442.42231452 -0.11724108 444.33204897 -0.1253107 C475.09741084 -0.24615975 475.09741084 -0.24615975 487.1524353 5.26069641 C488.82692749 5.90264954 488.82692749 5.90264954 490.5352478 6.55757141 C503.4187033 11.52781234 514.2542577 17.67330718 525.1524353 26.26069641 C526.56395874 27.32417297 526.56395874 27.32417297 528.0039978 28.40913391 C529.06747437 29.32565735 529.06747437 29.32565735 530.1524353 30.26069641 C530.1524353 30.92069641 530.1524353 31.58069641 530.1524353 32.26069641 C530.73638062 32.50432922 531.32032593 32.74796204 531.92196655 32.99897766 C545.2745839 40.55220954 554.02729353 63.70874715 558.14852905 77.62397766 C560.11536565 85.1807709 561.23542272 92.58356185 561.46417236 100.39828491 C561.48463599 101.09583527 561.50509963 101.79338563 561.52618337 102.51207387 C561.59241896 104.88006887 561.65045677 107.24815501 561.70663452 109.6164093 C561.72759681 110.46738068 561.74855911 111.31835205 561.77015662 112.19511044 C562.4020852 138.66921469 562.29930866 165.15400491 562.28773571 191.63394719 C562.28540683 197.11364253 562.28518351 202.59333478 562.28625107 208.07303047 C562.28648092 209.26766857 562.28648092 209.26766857 562.28671541 210.48644077 C562.28703539 212.10839637 562.28735961 213.73035197 562.287688 215.35230757 C562.29052319 230.4906029 562.28729699 245.62889214 562.28188764 260.76718647 C562.27751261 273.39027049 562.27818152 286.01334503 562.2828064 298.63642883 C562.29912949 344.84465033 562.27051339 391.05260623 562.1524353 437.26069641 C562.15028165 438.10918927 562.14812799 438.95768213 562.14590907 439.83188689 C562.09111371 461.26032196 562.01933687 482.68860183 561.90626371 504.11681539 C561.89764831 505.75001703 561.8890365 507.38321869 561.88042831 509.01642036 C561.87619022 509.81852596 561.87195213 510.62063156 561.86758561 511.44704339 C561.83882638 517.01854976 561.8173516 522.59005389 561.79916763 528.16160393 C561.77708971 534.88168684 561.74459304 541.60162109 561.69866249 548.32158501 C561.67560712 551.7278921 561.65848481 555.13393148 561.65099859 558.54032826 C561.56615653 593.21066749 553.71350708 620.72096606 529.39852905 646.13960266 C514.58601905 660.24570384 495.92195321 670.21178679 476.1524353 675.26069641 C474.60260704 675.65820854 474.60260704 675.65820854 473.02146912 676.06375122 C460.06412312 678.91784374 447.10552576 678.74286785 433.88902211 678.76676941 C430.20328435 678.77660577 426.51765363 678.80329412 422.83198547 678.82722473 C415.3945456 678.87251486 407.95712659 678.90062609 400.51958579 678.92288768 C394.32313713 678.94167791 388.12673908 678.96660241 381.93032837 678.995224 C352.02768293 679.13199847 322.12499845 679.20190453 292.22210276 679.25686646 C289.38246342 679.26212126 286.54282434 679.26750548 283.70318523 679.272882 C239.52693763 679.35638336 195.35070687 679.41020962 151.17438845 679.43641793 C139.40725771 679.44341342 127.64013521 679.45388047 115.87300956 679.46678852 C100.49963061 679.48358396 85.12627257 679.49299149 69.75288385 679.4906472 C62.21698126 679.48964635 54.68111169 679.49164098 47.14521599 679.50253296 C40.81210177 679.51166548 34.47903202 679.51380839 28.14591393 679.5071434 C24.94725732 679.5039681 21.74870183 679.50485002 18.55005062 679.51257741 C6.39321843 679.54000985 -5.68818366 679.36740008 -17.8112793 678.39785767 C-18.7539996 678.32399218 -19.69671991 678.25012669 -20.66800749 678.17402285 C-44.65164886 676.0187895 -66.40530249 666.69933285 -84.8475647 651.26069641 C-85.97291626 650.35964172 -85.97291626 650.35964172 -87.1210022 649.44038391 C-88.74877137 648.10857277 -90.30886368 646.694486 -91.8475647 645.26069641 C-91.8475647 644.60069641 -91.8475647 643.94069641 -91.8475647 643.26069641 C-92.5075647 643.26069641 -93.1675647 643.26069641 -93.8475647 643.26069641 C-106.97834304 629.09741242 -114.34252153 612.54530406 -119.8475647 594.26069641 C-120.3425647 592.77569641 -120.3425647 592.77569641 -120.8475647 591.26069641 C-122.22364024 580.45107684 -121.99374669 569.50798795 -121.98800659 558.63381958 C-121.99059456 556.65964837 -121.99360891 554.68547768 -121.99700999 552.7113077 C-122.00503217 547.31407381 -122.00686687 541.91685325 -122.00760746 536.5196141 C-122.00946632 530.68781105 -122.01701766 524.85601479 -122.02374268 519.0242157 C-122.03729108 506.28658079 -122.04334487 493.54894905 -122.04775333 480.81130815 C-122.05052089 472.85187288 -122.0547591 464.89243883 -122.05925751 456.93300438 C-122.07149966 434.87669489 -122.08178093 412.82038618 -122.0851326 390.76407337 C-122.08535423 389.33982984 -122.08557601 387.9155863 -122.08579795 386.49134276 C-122.08601859 385.06379073 -122.08623907 383.63623869 -122.0864594 382.20868665 C-122.08690193 379.34508248 -122.08734905 376.48147831 -122.08779907 373.61787415 C-122.08796316 372.55287645 -122.08796316 372.55287645 -122.08813056 371.46636365 C-122.09176088 348.44667808 -122.10768346 325.42702401 -122.13098944 302.4073505 C-122.15561887 278.03568543 -122.16930682 253.66403836 -122.17050052 229.29236048 C-122.17135009 216.02000398 -122.17713499 202.74768197 -122.19532013 189.47533607 C-122.21074926 178.17511542 -122.21582486 166.87494883 -122.20758203 155.57471965 C-122.20368591 149.81452568 -122.20455441 144.05444048 -122.21863937 138.29426003 C-122.23144002 133.0108161 -122.23012702 127.727562 -122.21804866 122.4441181 C-122.21610234 120.54312046 -122.21912023 118.64210908 -122.22789302 116.74113069 C-122.35198769 88.00872016 -116.03121176 61.4346002 -96.8475647 39.26069641 C-96.1875647 38.27069641 -95.5275647 37.28069641 -94.8475647 36.26069641 C-94.1875647 36.26069641 -93.5275647 36.26069641 -92.8475647 36.26069641 C-92.6000647 35.67932922 -92.3525647 35.09796204 -92.0975647 34.49897766 C-84.19662573 20.35135881 -60.82626554 9.8976873 -45.8475647 5.26069641 C-44.8575647 5.26069641 -43.8675647 5.26069641 -42.8475647 5.26069641 C-42.5175647 4.60069641 -42.1875647 3.94069641 -41.8475647 3.26069641 C-40.04903211 2.97857365 -38.2452426 2.72011861 -36.43336523 2.54288119 C-34.61965484 2.34495352 -32.81202681 2.08638535 -31.01285994 1.78353339 C-20.64189501 0.05441922 -10.48789268 -0.02278634 0 0 Z M128.4649353 203.88569641 C123.07551442 209.42077732 122.71207516 216.27754902 122.76475525 223.59687805 C122.75936971 224.50461755 122.75398417 225.41235704 122.74843544 226.3476038 C122.73419231 229.37216026 122.74125058 232.39627682 122.74838257 235.42085266 C122.74267716 237.5962204 122.73571224 239.77158515 122.72758484 241.94694519 C122.70965876 247.84355803 122.71082065 253.74002201 122.71652722 259.6366539 C122.71961939 264.56223273 122.7135264 269.48778298 122.70748848 274.41335773 C122.6934471 286.03339329 122.69500178 297.65335532 122.70639038 309.27339172 C122.71787567 321.25682552 122.70378812 333.23994411 122.67699391 345.22335529 C122.65483789 355.51826458 122.6481992 365.81310365 122.65407032 376.10803509 C122.65744077 382.25403896 122.65501857 388.39989938 122.63781929 394.54588318 C122.6223536 400.32439087 122.62630186 406.10256698 122.64512444 411.88106155 C122.64881109 413.99983278 122.64569966 416.11862856 122.63523865 418.23737717 C122.62203281 421.13347148 122.63357295 424.02846737 122.65122986 426.92451477 C122.64162485 427.7595456 122.63201985 428.59457644 122.62212378 429.45491123 C122.6933122 435.1439307 123.94820801 439.5113937 127.1524353 444.26069641 C130.9548392 447.70938832 134.57153236 449.10197451 139.62753296 449.38545227 C148.12303839 448.96568789 156.10012953 443.13299456 163.0899353 438.76069641 C164.09500122 438.14049622 165.10006714 437.52029602 166.1355896 436.88130188 C173.03328513 432.61449489 179.89439237 428.28905278 186.74057007 423.94013977 C193.46560085 419.6735568 200.24148072 415.49206414 207.0274353 411.32319641 C208.13312866 410.64377991 209.23882202 409.9643634 210.37802124 409.26435852 C212.58089035 407.91109818 214.78385141 406.55798752 216.98690796 405.20503235 C233.35270951 395.16562024 233.35270951 395.16562024 249.5274353 384.82319641 C257.07920079 379.88880933 264.77092841 375.20173225 272.48812866 370.53144836 C280.28767111 365.80537488 288.01034504 360.96825162 295.7071228 356.07710266 C299.34141992 353.76818976 302.99474737 351.49178464 306.65560913 349.22529602 C321.26769986 341.05444279 321.26769986 341.05444279 331.4649353 328.44819641 C332.77298255 322.38361373 331.84736838 317.41809557 328.68270874 312.10517883 C325.40855402 308.15874633 320.73731066 305.89712314 316.3399353 303.38569641 C315.30038696 302.77347229 314.26083862 302.16124817 313.18978882 301.5304718 C311.116849 300.31057511 309.04001811 299.09726278 306.95907593 297.8910675 C304.05308133 296.20298192 301.17266856 294.4777445 298.29940796 292.7348175 C293.66634121 289.92533429 289.00164596 287.16918496 284.3321228 284.42085266 C274.10183752 278.39862156 263.91478455 272.31327132 253.7774353 266.13569641 C242.04419879 258.98591563 230.25025441 251.942546 218.42636108 244.94380188 C206.18527428 237.69810962 193.98362634 230.39086921 181.84091187 222.98139954 C177.07623604 220.07498485 172.30021135 217.18736006 167.52352905 214.30073547 C165.39876783 213.01492256 163.27607371 211.72568166 161.15634155 210.43159485 C158.57965674 208.86091357 155.99315035 207.30808945 153.4024353 205.76069641 C152.67185913 205.3103302 151.94128296 204.85996399 151.18856812 204.39595032 C143.3617869 199.77803932 136.5043647 199.02464608 128.4649353 203.88569641 Z " fill="#69AAEF" transform="translate(291.8475646972656,172.7393035888672)"/>
<path d="M0 0 C2.70254076 0.01070313 5.40441303 0.00004549 8.10693359 -0.01269531 C41.77885207 -0.04104513 74.98702429 6.76128657 105.83740234 20.26074219 C106.57829102 20.58300781 107.31917969 20.90527344 108.08251953 21.23730469 C145.98133919 37.90804163 180.15029895 65.22209311 203.83740234 99.26074219 C204.30549316 99.9271875 204.77358398 100.59363281 205.25585938 101.28027344 C226.28819268 131.54685158 240.28450399 166.29819938 244.56916809 202.97149658 C244.73846561 204.41636645 244.9140929 205.86052164 245.09860229 207.30352783 C245.78997619 212.95218922 246.01270667 218.52224787 246.04052734 224.20996094 C246.04622742 225.14387161 246.05192749 226.07778229 246.05780029 227.03999329 C246.06719768 229.01240935 246.07376319 230.98484074 246.07763672 232.95727539 C246.08722955 235.89532031 246.11825643 238.83262984 246.14990234 241.77050781 C246.22478929 255.16563743 245.03804888 268.05274595 242.83740234 281.26074219 C242.6545166 282.38182373 242.47163086 283.50290527 242.28320312 284.65795898 C241.8336561 287.20759804 241.3297605 289.73211574 240.77490234 292.26074219 C240.57719238 293.16880615 240.37948242 294.07687012 240.17578125 295.01245117 C238.18723337 303.6087332 235.50428325 311.96113816 232.71240234 320.32324219 C232.49462128 320.97639404 232.27684021 321.6295459 232.05245972 322.30249023 C226.32938469 339.34978741 226.32938469 339.34978741 222.4206543 341.73632812 C221.48181396 342.06922852 220.54297363 342.40212891 219.57568359 342.74511719 C218.53863281 343.1228125 217.50158203 343.50050781 216.43310547 343.88964844 C215.34964844 344.25960938 214.26619141 344.62957031 213.14990234 345.01074219 C212.08578125 345.39617187 211.02166016 345.78160156 209.92529297 346.17871094 C204.28440645 348.19256666 198.67755243 349.93311436 192.83740234 351.26074219 C194.67076933 345.49721115 196.74292237 339.87035604 198.99658203 334.25854492 C206.34573684 315.95255326 212.04268182 297.63178823 215.83740234 278.26074219 C216.00401367 277.42333496 216.170625 276.58592773 216.34228516 275.72314453 C226.25236266 223.5772605 214.36199118 166.30079731 185.05102539 122.16723633 C153.17759354 75.89935138 105.68016592 44.25759672 50.83740234 32.26074219 C49.49935547 31.96441895 49.49935547 31.96441895 48.13427734 31.66210938 C-4.20716723 20.6190767 -61.06061222 30.24102664 -106.40429688 58.66601562 C-111.09157251 61.72543144 -115.65187777 64.94778408 -120.16259766 68.26074219 C-121.02240234 68.88722656 -121.88220703 69.51371094 -122.76806641 70.15917969 C-127.96724515 74.07926844 -132.74432842 78.43191481 -137.52587891 82.84667969 C-139.78295806 84.91316105 -142.07822983 86.9080766 -144.41259766 88.88574219 C-180.62162408 120.44854302 -201.92894002 173.282144 -205.96850586 220.19702148 C-207.03660117 237.05680522 -207.03040936 254.58169008 -204.16259766 271.26074219 C-204.01193848 272.14826172 -203.8612793 273.03578125 -203.70605469 273.95019531 C-197.45440746 309.47828847 -183.72780172 342.97306731 -161.16259766 371.26074219 C-160.44587891 372.16953125 -159.72916016 373.07832031 -158.99072266 374.01464844 C-151.1555529 383.78082634 -142.93201518 393.37783288 -133.16259766 401.26074219 C-132.14681641 402.09089844 -131.13103516 402.92105469 -130.08447266 403.77636719 C-116.97422004 414.3659227 -103.45607971 423.16301821 -88.16259766 430.26074219 C-87.06947266 430.7828125 -85.97634766 431.30488281 -84.85009766 431.84277344 C-79.35805322 434.3445581 -74.31603105 436.2843418 -68.42041016 437.55371094 C-53.06165864 441.04367277 -53.06165864 441.04367277 -49.51220703 445.1875 C-47.0344277 449.5948256 -45.76644558 454.27126699 -44.66845703 459.18066406 C-44.00440099 461.91124201 -42.9339811 464.35514617 -41.72509766 466.88574219 C-41.20947266 467.99949219 -40.69384766 469.11324219 -40.16259766 470.26074219 C-73.24300789 469.57416764 -106.52760697 455.07211071 -133.16259766 436.26074219 C-134.21318359 435.52339844 -135.26376953 434.78605469 -136.34619141 434.02636719 C-153.38941396 421.62306578 -169.33660825 407.01943915 -182.16259766 390.26074219 C-182.59282227 389.70161133 -183.02304687 389.14248047 -183.46630859 388.56640625 C-190.39592095 379.5121718 -196.56798304 370.19202496 -202.16259766 360.26074219 C-202.55801758 359.57093262 -202.9534375 358.88112305 -203.36083984 358.17041016 C-233.70612021 304.85560551 -242.66280286 238.56398717 -226.99609375 179.23291016 C-216.00840173 140.05184318 -197.82866352 105.77328569 -170.35009766 75.67089844 C-168.22993149 73.33492964 -166.16562456 70.95747344 -164.10009766 68.57324219 C-160.38849625 64.41306518 -156.45872937 60.80622374 -152.16259766 57.26074219 C-151.61071777 56.79651855 -151.05883789 56.33229492 -150.49023438 55.85400391 C-129.87139083 38.5212041 -107.42591089 24.79887983 -82.16259766 15.26074219 C-81.35806152 14.9568457 -80.55352539 14.65294922 -79.72460938 14.33984375 C-69.11712222 10.41362788 -58.38155588 7.43539611 -47.35009766 4.94824219 C-46.27824219 4.7057373 -45.20638672 4.46323242 -44.10205078 4.21337891 C-29.34127164 1.03527445 -15.05187661 -0.07062783 0 0 Z " fill="#FCFEFE" transform="translate(499.16259765625,256.7392578125)"/>
<path d="M0 0 C2.2854944 3.35750011 2.06750141 5.40343509 1.640625 9.41015625 C0.96581179 11.92718107 0.24045647 14.23528314 -0.671875 16.66015625 C-1.07273315 17.7594043 -1.07273315 17.7594043 -1.48168945 18.88085938 C-4.27696069 26.42123262 -7.36942032 33.84278592 -10.43505859 41.27612305 C-14.79896506 51.9107518 -18.95391407 62.62201441 -23.0909729 73.34664917 C-36.3924219 107.82741156 -49.73118027 142.33842053 -64.43994141 176.24926758 C-65.44963779 178.62229538 -66.40924772 181.01272982 -67.359375 183.41015625 C-66.45316406 183.76207031 -65.54695312 184.11398437 -64.61328125 184.4765625 C-50.75179579 190.09449788 -40.9280123 197.55998981 -34.18359375 211.29296875 C-29.40066647 223.57897152 -29.48143086 239.25413426 -34.03515625 251.62109375 C-36.28235669 256.35413538 -39.01036643 260.39134597 -42.359375 264.41015625 C-42.93300781 265.11914062 -43.50664063 265.828125 -44.09765625 266.55859375 C-52.51975395 275.97258733 -64.80536752 280.77717728 -77.16015625 281.69140625 C-91.4850778 282.36396873 -104.3252093 279.07725717 -115.359375 269.41015625 C-124.82496765 260.59033114 -130.95300085 248.94108821 -131.73046875 235.9296875 C-132.1402847 220.10679343 -128.02707932 207.48609823 -117.109375 195.72265625 C-112.74682646 191.57197541 -107.25174816 187.45025253 -101.36669922 185.87768555 C-97.11104997 184.73051162 -97.11104997 184.73051162 -94.25024414 181.57958984 C-93.45243511 179.30747448 -92.87269504 177.07505147 -92.359375 174.72265625 C-92.15699219 173.92537109 -91.95460938 173.12808594 -91.74609375 172.30664062 C-91.25362741 170.34850066 -90.80234252 168.38008391 -90.359375 166.41015625 C-93.39323061 166.41015625 -95.10413628 166.91245672 -97.921875 167.94140625 C-98.80101562 168.25722656 -99.68015625 168.57304688 -100.5859375 168.8984375 C-101.50117187 169.23230469 -102.41640625 169.56617188 -103.359375 169.91015625 C-105.17029316 170.57075879 -106.98273644 171.22719958 -108.796875 171.87890625 C-109.59996094 172.17216797 -110.40304687 172.46542969 -111.23046875 172.76757812 C-113.359375 173.41015625 -113.359375 173.41015625 -116.359375 173.41015625 C-116.565625 174.66828125 -116.771875 175.92640625 -116.984375 177.22265625 C-119.79941733 189.60884249 -128.11580229 200.05792402 -138.421875 207.22265625 C-151.9919385 215.20949976 -167.45570203 217.93311658 -182.90234375 214.21875 C-196.10895889 209.87253484 -206.9286037 201.1606826 -214.359375 189.41015625 C-221.14292166 175.94938812 -222.28134508 161.4125672 -217.58203125 147.03125 C-211.32289291 132.01469063 -201.49348262 121.52897067 -186.53515625 115.21875 C-172.78013074 110.26556014 -157.86704519 110.93270301 -144.359375 116.41015625 C-140.80600592 118.15018293 -137.57472959 120.10851753 -134.359375 122.41015625 C-133.72515625 122.86132812 -133.0909375 123.3125 -132.4375 123.77734375 C-125.19551036 129.44916749 -120.87166098 137.05470938 -117.359375 145.41015625 C-116.40571045 145.07693359 -115.4520459 144.74371094 -114.46948242 144.40039062 C-110.93203678 143.16573292 -107.39249869 141.93717364 -103.85229492 140.71044922 C-102.32014087 140.17858424 -100.7885599 139.6450654 -99.25756836 139.10986328 C-97.05731264 138.3410219 -94.85506699 137.57814478 -92.65234375 136.81640625 C-91.96786667 136.57579468 -91.28338959 136.33518311 -90.57817078 136.08728027 C-87.70100282 135.09790386 -85.42627563 134.41015625 -82.359375 134.41015625 C-82.24232712 133.67247513 -82.12527924 132.93479401 -82.00468445 132.17475891 C-80.8696626 125.17453608 -79.54175153 118.25023152 -78.00390625 111.328125 C-77.66681892 109.80400749 -77.66681892 109.80400749 -77.32292175 108.24909973 C-76.84817556 106.11008554 -76.371616 103.97147307 -75.89331055 101.83325195 C-75.18248816 98.64525564 -74.48460948 95.45460531 -73.78710938 92.26367188 C-71.44695349 81.69616458 -68.87196561 71.24775018 -65.74609375 60.8828125 C-65.32950249 59.49330635 -65.32950249 59.49330635 -64.90449524 58.07572937 C-62.29530194 49.67259425 -58.70156466 42.04372567 -54.359375 34.41015625 C-53.54726563 32.94255859 -53.54726563 32.94255859 -52.71875 31.4453125 C-44.87152623 18.16979073 -31.64617493 3.50330186 -16.46484375 -1.22265625 C-10.96736341 -2.1814005 -4.8022004 -3.23591981 0 0 Z " fill="#FDFDFE" transform="translate(690.359375,528.58984375)"/>
<path d="M0 0 C2.8100346 1.79363911 4.50940468 3.01880935 6 6 C6.54158703 19.13937227 -0.39836744 29.47461463 -8.89453125 38.828125 C-25.22312002 55.9436965 -47.04089089 64.20319313 -69.54296875 69.98828125 C-70.88738514 70.33927472 -72.23164596 70.69086456 -73.57575989 71.04301453 C-76.36029792 71.77094854 -79.14602205 72.49406213 -81.93286133 73.21313477 C-85.50675852 74.13536113 -89.07827159 75.06644874 -92.64905834 76.00063801 C-96.07121616 76.89547872 -99.49457044 77.78570065 -102.91796875 78.67578125 C-103.56838827 78.84537165 -104.21880779 79.01496204 -104.888937 79.18969154 C-106.71850112 79.66590689 -108.54904666 80.13834701 -110.37963867 80.6105957 C-111.41964523 80.87975296 -112.45965179 81.14891022 -113.53117371 81.42622375 C-116 82 -116 82 -118 82 C-116.46066341 77.15977877 -114.61818329 72.50268481 -112.6640625 67.8203125 C-112.34343842 67.04871796 -112.02281433 66.27712341 -111.69247437 65.48214722 C-111.01610619 63.85630444 -110.3386465 62.23091537 -109.66015625 60.60595703 C-108.63174228 58.1411592 -107.60863594 55.67420512 -106.5859375 53.20703125 C-105.92480068 51.61965772 -105.26335238 50.03241387 -104.6015625 48.4453125 C-104.30037506 47.71796906 -103.99918762 46.99062561 -103.68887329 46.24124146 C-102.81336764 44.15121913 -101.90815728 42.0760033 -101 40 C-100.70572617 39.27177032 -100.41145233 38.54354065 -100.10826111 37.79324341 C-98.5106594 34.13559071 -97.61588083 32.36749898 -94.1105957 30.27587891 C-92.41036255 29.75646729 -92.41036255 29.75646729 -90.67578125 29.2265625 C-90.03719681 29.02029236 -89.39861237 28.81402222 -88.74067688 28.60150146 C-87.34311217 28.15307565 -85.94117485 27.71810488 -84.53570557 27.29510498 C-80.63273107 26.11869436 -76.76278196 24.83981806 -72.88671875 23.578125 C-72.04234253 23.30636444 -71.19796631 23.03460388 -70.32800293 22.75460815 C-58.64100745 18.96514857 -47.14472623 14.6398821 -35.625 10.375 C-33.44712864 9.57213766 -31.26915228 8.76956008 -29.09106445 7.96728516 C-19.51061839 4.4762053 -19.51061839 4.4762053 -10.00537109 0.7890625 C-6.67120412 -0.52284737 -3.5153087 -0.59653723 0 0 Z " fill="#FDFDFE" transform="translate(762,604)"/>
<path d="M0 0 C7.53364476 4.42647867 11.00391669 10.68455294 13.4375 18.875 C14.24742395 25.47009502 12.64253342 31.57328329 8.9609375 37.0859375 C3.80471541 43.41937924 -2.41332568 47.14523418 -10.5703125 48.11328125 C-17.70325939 48.3633292 -23.94422276 46.67865572 -29.64453125 42.26171875 C-34.29940495 37.84203867 -37.22792486 33.59063485 -38.03125 27.0703125 C-38.06558446 25.71393617 -38.07533738 24.35675009 -38.0625 23 C-38.05605469 22.29109619 -38.04960937 21.58219238 -38.04296875 20.85180664 C-37.7856321 13.49654948 -35.63118798 9.97462233 -30.625 4.91796875 C-22.04465978 -3.06109763 -10.93121383 -5.10451577 0 0 Z " fill="#758BEF" transform="translate(535.5625,670.125)"/>
<path d="M0 0 C1.99524856 -0.00159074 3.99049658 -0.00405695 5.98574311 -0.00731641 C11.43618306 -0.01369597 16.88654809 -0.00768821 22.33698308 0.00044787 C28.22718049 0.00705129 34.11736988 0.00207073 40.00756836 -0.00143433 C51.53173659 -0.00646555 63.05587603 -0.00084872 74.58004069 0.00841597 C83.94416039 0.01576422 93.30827321 0.01870933 102.67239571 0.01854515 C103.33863663 0.01853751 104.00487755 0.01852986 104.69130758 0.01852198 C107.39597908 0.01848107 110.10065058 0.01841546 112.80532207 0.01831617 C138.14949014 0.01741115 163.49364323 0.02733994 188.8378061 0.04274584 C211.34964167 0.05637958 233.86146661 0.0626066 256.37330627 0.06193542 C257.81986781 0.06189501 259.26642934 0.06185465 260.71299087 0.06181435 C261.42814916 0.06179399 262.14330745 0.06177364 262.8801372 0.06175268 C266.48023113 0.06165188 270.08032505 0.0615613 273.68041897 0.06148243 C274.7458141 0.06145736 274.7458141 0.06145736 275.83273237 0.06143178 C294.65576823 0.06106665 313.47880276 0.06560464 332.3018375 0.07180899 C333.30607834 0.0721394 333.30607834 0.0721394 334.33060687 0.07247648 C337.02267812 0.07336469 339.71474937 0.07425309 342.4068206 0.07516744 C352.43398899 0.07855029 362.46115621 0.07989252 372.48832512 0.08037758 C383.88471113 0.08105929 395.28108872 0.08551833 406.67747115 0.09471039 C412.49297881 0.0993306 418.30847567 0.10237303 424.12398529 0.10111618 C429.44500205 0.10002194 434.76599492 0.1035347 440.0870067 0.1107647 C442.01402084 0.11257925 443.94103746 0.11270714 445.8680517 0.11099742 C448.48378139 0.10893322 451.09943273 0.11299581 453.7151556 0.11860371 C454.84151092 0.11552073 454.84151092 0.11552073 455.99062088 0.11237547 C460.45952429 0.12991762 464.66955455 0.52115899 469.06495667 1.24723816 C468.73495667 1.90723816 468.40495667 2.56723816 468.06495667 3.24723816 C465.75495667 3.24723816 463.44495667 3.24723816 461.06495667 3.24723816 C461.06495667 2.58723816 461.06495667 1.92723816 461.06495667 1.24723816 C460.10815234 1.48509008 460.10815234 1.48509008 459.13201863 1.72774708 C455.07767429 2.41446151 451.09774083 2.48003327 446.99196529 2.55909538 C446.09314702 2.57956785 445.19432876 2.60004032 444.26827357 2.62113316 C441.30548057 2.68656875 438.34260472 2.74462235 435.37963867 2.801651 C434.35404429 2.82262253 433.32844991 2.84359407 432.27177691 2.8652011 C411.78818594 3.28166682 391.31038298 3.39251007 370.82318532 3.37796283 C365.93257296 3.37563384 361.04196362 3.37922403 356.15135193 3.38194275 C346.65021408 3.38631952 337.14908425 3.38546151 327.64794613 3.38253011 C319.91945567 3.38024664 312.19096743 3.37997608 304.46247673 3.38105392 C303.35132859 3.38120716 302.24018045 3.38136039 301.09536115 3.38151827 C298.83649854 3.38183807 296.57763593 3.38216228 294.31877332 3.38249086 C273.29595096 3.38532108 252.27313301 3.38209601 231.25031137 3.37669049 C213.26949759 3.37221035 195.28869026 3.3730131 177.30787659 3.37760925 C156.31075114 3.38297408 135.3136295 3.38506152 114.31650347 3.38199699 C112.07422698 3.3816785 109.83195049 3.38136413 107.589674 3.38105392 C106.48701515 3.38089965 105.3843563 3.38074537 104.24828355 3.38058642 C96.53055298 3.37972805 88.81282487 3.38116909 81.09509468 3.38353348 C71.6897653 3.38635232 62.28444426 3.38554893 52.87911583 3.38025273 C48.09428751 3.3776459 43.30947303 3.37655894 38.52464485 3.37990189 C33.3152984 3.38328312 28.10597927 3.38176701 22.89663696 3.3742218 C22.09610272 3.37311929 21.29556848 3.37201679 20.47077562 3.37088087 C9.74482653 3.34828979 -0.95073806 3.14096904 -11.66145986 2.50848877 C-13.75101865 2.38839714 -15.8430434 2.31215514 -17.93504333 2.24723816 C-18.26504333 2.57723816 -18.59504333 2.90723816 -18.93504333 3.24723816 C-19.98691833 3.22661316 -21.03879333 3.20598816 -22.12254333 3.18473816 C-25.90654372 3.24677095 -28.40121255 4.01807962 -31.93504333 5.24723816 C-32.72266052 5.23048035 -33.51027771 5.21372253 -34.32176208 5.19645691 C-37.21666707 5.25271067 -38.98631314 5.89631095 -41.62254333 7.05973816 C-45.09145701 8.53092923 -48.4905226 9.74511049 -52.12254333 10.74723816 C-55.81655719 11.81746647 -58.89914316 13.13168031 -62.16160583 15.15348816 C-64.18734297 16.40284146 -66.27187412 17.50379311 -68.37254333 18.62223816 C-88.17152598 29.75086096 -104.8981954 49.63406237 -111.93504333 71.24723816 C-112.59504333 72.23723816 -113.25504333 73.22723816 -113.93504333 74.24723816 C-115.12155641 77.74818413 -115.96070733 81.16935022 -115.87254333 84.87223816 C-115.93504333 87.24723816 -115.93504333 87.24723816 -117.43504333 90.18473816 C-119.09811581 93.5801778 -119.093456 95.52454045 -118.93504333 99.24723816 C-119.09479645 100.02131012 -119.25454956 100.79538208 -119.41914368 101.59291077 C-119.95481379 104.34895804 -120.06202854 106.848454 -120.06443787 109.65397644 C-120.06759003 110.71343475 -120.07074219 111.77289307 -120.07398987 112.86445618 C-120.07196564 114.00397736 -120.06994141 115.14349854 -120.06785583 116.31755066 C-120.06881256 117.50839264 -120.06976929 118.69923462 -120.070755 119.92616272 C-120.07143557 122.45294752 -120.06958987 124.97973406 -120.06541443 127.5065155 C-120.06013057 131.30945455 -120.06532901 135.11227187 -120.07176208 138.91520691 C-120.07384673 150.47154679 -120.04606627 161.99163549 -119.19654846 173.52217102 C-118.93462637 177.31278261 -119.03687751 180.5566453 -119.93504333 184.24723816 C-120.02601538 186.43324284 -120.06511377 188.62184725 -120.06004333 190.80973816 C-120.06262146 191.92477722 -120.06519958 193.03981628 -120.06785583 194.18864441 C-120.05001449 197.10092466 -120.05001449 197.10092466 -119.40379333 199.26286316 C-118.74120588 202.0678167 -119.05685518 204.57097481 -119.31004333 207.43473816 C-119.40930115 208.57684753 -119.50855896 209.71895691 -119.61082458 210.89567566 C-120.00970467 215.01903844 -120.44696918 219.13347025 -120.93504333 223.24723816 C-120.27504333 223.24723816 -119.61504333 223.24723816 -118.93504333 223.24723816 C-118.80856358 229.69770545 -118.80856358 229.69770545 -119.4306488 232.40055847 C-120.15221665 236.47291135 -120.07751935 240.47880335 -120.06785583 244.60661316 C-120.06881256 245.51042725 -120.06976929 246.41424133 -120.070755 247.34544373 C-120.07143421 249.25509206 -120.06959801 251.16474273 -120.06541443 253.0743866 C-120.0600875 255.9732035 -120.06535533 258.87186371 -120.07176208 261.77067566 C-120.07110077 263.63265516 -120.06981851 265.49463457 -120.06785583 267.35661316 C-120.06988007 268.21317505 -120.0719043 269.06973694 -120.07398987 269.95225525 C-120.05541448 274.80832484 -119.7697255 279.53874365 -119.16133118 284.35765076 C-118.78679126 287.485198 -118.71153048 290.30076181 -119.43675232 293.37174988 C-120.08124791 297.090941 -120.05850296 300.7443034 -120.03269958 304.50505066 C-120.03057716 305.68235245 -120.03057716 305.68235245 -120.02841187 306.88343811 C-120.02283871 309.37974441 -120.01030156 311.87595927 -119.99754333 314.37223816 C-119.99252393 316.05843476 -119.98796179 317.7446328 -119.98387146 319.43083191 C-119.97571503 322.51434651 -119.96504197 325.59782718 -119.95091248 328.68132019 C-119.93440185 332.3913858 -119.94079725 336.09983304 -119.97019958 339.80973816 C-119.97950127 341.62223721 -119.98860847 343.43473726 -119.99754333 345.24723816 C-120.00592224 346.16247253 -120.01430115 347.07770691 -120.02293396 348.02067566 C-120.02615662 348.89981628 -120.02937927 349.77895691 -120.03269958 350.68473816 C-120.0379364 351.4878241 -120.04317322 352.29091003 -120.04856873 353.11833191 C-120.01934073 355.43644878 -120.01934073 355.43644878 -118.93504333 358.24723816 C-119.26504333 358.57723816 -119.59504333 358.90723816 -119.93504333 359.24723816 C-120.03023701 362.04713535 -120.06058278 364.8222999 -120.04856873 367.6224823 C-120.04871475 368.50044968 -120.04886078 369.37841705 -120.04901123 370.2829895 C-120.04831178 373.19948251 -120.04051789 376.11591249 -120.03269958 379.03239441 C-120.03083552 381.04878708 -120.02941156 383.0651802 -120.02841187 385.08157349 C-120.02458578 390.39988954 -120.01475472 395.71817846 -120.00370789 401.03648376 C-119.99349571 406.45894504 -119.98891466 411.88141068 -119.98387146 417.30387878 C-119.97313253 427.95167719 -119.95605503 438.59945542 -119.93504333 449.24723816 C-120.59504333 449.24723816 -121.25504333 449.24723816 -121.93504333 449.24723816 C-122.00379084 404.96571101 -122.05661339 360.68418954 -122.08823932 316.40261949 C-122.0919912 311.1683712 -122.09587419 305.93412301 -122.09983826 300.69987488 C-122.10062519 299.6578813 -122.10141212 298.61588771 -122.1022229 297.54231857 C-122.11525763 280.69622789 -122.13890077 263.85016808 -122.16650172 247.00409569 C-122.1946098 229.70352084 -122.21123099 212.40296211 -122.21730882 195.10236537 C-122.22141407 184.43698227 -122.23435481 173.77168647 -122.25879274 163.10633026 C-122.27471668 155.78115593 -122.2794287 148.45602638 -122.27554747 141.13083602 C-122.27363623 136.91194119 -122.27645352 132.69319834 -122.29265976 128.4743309 C-122.41305371 95.4613821 -119.41011334 65.22561643 -96.93504333 39.24723816 C-96.27504333 38.25723816 -95.61504333 37.26723816 -94.93504333 36.24723816 C-94.27504333 36.24723816 -93.61504333 36.24723816 -92.93504333 36.24723816 C-92.68754333 35.66587097 -92.44004333 35.08450378 -92.18504333 34.48551941 C-84.28410436 20.33790056 -60.91374418 9.88422905 -45.93504333 5.24723816 C-44.94504333 5.24723816 -43.95504333 5.24723816 -42.93504333 5.24723816 C-42.60504333 4.58723816 -42.27504333 3.92723816 -41.93504333 3.24723816 C-40.13640147 2.96509826 -38.33249639 2.70665439 -36.52050215 2.52947551 C-34.70789573 2.33160532 -32.9013894 2.07288254 -31.103414 1.769602 C-20.70238922 0.03300163 -10.51833761 -0.03056572 0 0 Z " fill="#50D7ED" transform="translate(291.93504333496094,172.7527618408203)"/>
<path d="M0 0 C5.58540625 4.6646237 9.50134026 10.49336262 10.3125 17.82421875 C10.57663032 24.4027145 10.09542253 29.69534408 6 35 C1.20907292 40.0509774 -3.1709664 43.6065748 -10.26953125 44.3359375 C-18.79833438 44.42997061 -24.49990953 44.03550624 -30.9296875 38.26953125 C-35.81349851 33.19320487 -38.80993306 27.84257518 -39.08984375 20.7109375 C-38.58190028 13.13085806 -35.77572469 7.36583139 -30.25 2.1875 C-20.77571327 -5.51145656 -10.74532207 -5.64129409 0 0 Z " fill="#7D7DEE" transform="translate(623,740)"/>
<path d="M0 0 C0.33 0 0.66 0 1 0 C1.89737632 60.12788981 2.11756203 120.24250976 1.78981489 180.37514621 C1.75753027 186.39606742 1.73271322 192.41699013 1.71096802 198.43795776 C1.68380023 205.8631736 1.64529134 213.28823412 1.59287161 220.71331614 C1.56596758 224.5426642 1.54329464 228.37189889 1.53279686 232.20133018 C1.42514897 268.04466109 -5.45691133 296.43367894 -30.75390625 322.87890625 C-45.56641625 336.98500743 -64.23048209 346.95109038 -84 352 C-85.03321884 352.26500809 -86.06643768 352.53001617 -87.13096619 352.80305481 C-100.08831218 355.65714732 -113.04690955 355.48217144 -126.26341319 355.506073 C-129.94915095 355.51590936 -133.63478168 355.54259771 -137.32044983 355.56652832 C-144.7578897 355.61181845 -152.19530871 355.63992967 -159.63284951 355.66219127 C-165.82929817 355.6809815 -172.02569622 355.705906 -178.22210693 355.73452759 C-208.12475238 355.87130205 -238.02743685 355.94120812 -267.93033254 355.99617004 C-270.76997188 356.00142485 -273.60961097 356.00680907 -276.44925008 356.01218559 C-320.62549768 356.09568695 -364.80172843 356.1495132 -408.97804686 356.17572152 C-420.74517759 356.18271701 -432.5123001 356.19318405 -444.27942575 356.2060921 C-459.65280469 356.22288755 -475.02616273 356.23229508 -490.39955145 356.22995079 C-497.93545404 356.22894994 -505.47132362 356.23094457 -513.00721931 356.24183655 C-519.34033353 356.25096907 -525.67340328 356.25311198 -532.00652138 356.24644699 C-535.20517798 356.24327169 -538.40373347 356.24415361 -541.60238469 356.251881 C-553.92145099 356.27967953 -566.1586939 356.08310937 -578.44418335 355.1098175 C-579.4513165 355.03228625 -580.45844964 354.95475499 -581.49610198 354.87487429 C-582.42546486 354.79217565 -583.35482774 354.70947701 -584.31235313 354.62427235 C-585.12434587 354.55250304 -585.9363386 354.48073373 -586.77293718 354.4067896 C-589.14754482 353.97304984 -590.90525816 353.17925321 -593 352 C-591.97519531 352.08378906 -590.95039062 352.16757812 -589.89453125 352.25390625 C-588.53388121 352.35712798 -587.17320254 352.45997265 -585.8125 352.5625 C-585.13896484 352.61857422 -584.46542969 352.67464844 -583.77148438 352.73242188 C-580.97949851 352.93671352 -578.44973341 353.10179663 -575.70581055 352.48071289 C-572.32197163 351.87954183 -569.36834387 352.15451596 -565.9375 352.4296875 C-551.93617973 353.37616152 -537.88284042 353.15052848 -523.85693359 353.13037109 C-519.79141518 353.12463592 -515.72596227 353.12799029 -511.66044617 353.13394356 C-508.49122635 353.13757469 -505.32202182 353.13639956 -502.15280151 353.13381577 C-500.65387972 353.13315556 -499.15495647 353.13394266 -497.65603638 353.13629532 C-490.39681834 353.14520663 -483.22433833 353.12336684 -476.02001953 352.11642456 C-474 352 -474 352 -472.21935797 352.48485839 C-469.57669218 353.09825521 -467.18430501 353.12539078 -464.47025299 353.12584114 C-463.33845281 353.12844889 -462.20665263 353.13105664 -461.04055548 353.13374341 C-459.79664116 353.13151268 -458.55272685 353.12928196 -457.27111816 353.12698364 C-455.93626313 353.1281357 -454.60140841 353.12972379 -453.26655436 353.13171089 C-449.5939675 353.1358943 -445.92140655 353.13381776 -442.24881959 353.13072467 C-438.28769901 353.12846608 -434.32658295 353.13195296 -430.36546326 353.13470459 C-422.59479631 353.13916027 -414.82413901 353.13818557 -407.05347168 353.13529195 C-400.72044618 353.13303194 -394.38742337 353.13272801 -388.05439758 353.13381577 C-387.15223972 353.133969 -386.25008186 353.13412223 -385.32058588 353.13428011 C-383.48734534 353.13459986 -381.6541048 353.13492408 -379.82086426 353.1352527 C-362.60248556 353.13810823 -345.38411218 353.13482203 -328.16573435 353.12945233 C-313.46383974 353.12500847 -298.76195305 353.12573997 -284.06005859 353.13037109 C-266.95215331 353.13575768 -249.84425273 353.13780807 -232.73634672 353.13475883 C-230.90013345 353.13444034 -229.06392018 353.13412596 -227.22770691 353.13381577 C-225.87298687 353.13358435 -225.87298687 353.13358435 -224.49089876 353.13334826 C-218.19842454 353.13249345 -211.90595336 353.13392389 -205.61347961 353.13629532 C-197.89502782 353.1391402 -190.17658616 353.13825968 -182.45813549 353.13301457 C-178.53677623 353.13043559 -174.61543366 353.12926965 -170.69407463 353.13266373 C-152.70474711 353.14698622 -134.74205283 352.91219424 -116.76078176 352.34914124 C-116.03315569 352.32649837 -115.30552961 352.30385549 -114.55585426 352.28052647 C-112.5937734 352.21863986 -110.63177075 352.15428694 -108.66977549 352.08974349 C-97.37303144 351.81348428 -97.37303144 351.81348428 -95 353 C-95 352.34 -95 351.68 -95 351 C-94.40832031 350.93941406 -93.81664062 350.87882812 -93.20703125 350.81640625 C-87.0424706 350.24887395 -87.0424706 350.24887395 -81 349 C-80.67 348.34 -80.34 347.68 -80 347 C-77.93734178 346.6088062 -75.90556733 346.49325481 -73.8125 346.34375 C-73.214375 346.2303125 -72.61625 346.116875 -72 346 C-71.67 345.34 -71.34 344.68 -71 344 C-69.25576416 343.20931924 -67.47767073 342.49281131 -65.6875 341.8125 C-59.94404224 339.5109948 -54.770045 336.67492789 -49.49609375 333.453125 C-47 332 -47 332 -44 331 C-43.67 330.01 -43.34 329.02 -43 328 C-41.34467377 326.98133771 -39.67739862 325.98189187 -38 325 C-37.34 324.01 -36.68 323.02 -36 322 C-35.34 321.690625 -34.68 321.38125 -34 321.0625 C-31.83968364 320.16275904 -31.83968364 320.16275904 -31 318 C-29.75491604 315.50983207 -28.53283204 315.01313282 -26 314 C-26 313.34 -26 312.68 -26 312 C-24.33333333 310.33333333 -22.66666667 308.66666667 -21 307 C-20.67 306.01 -20.34 305.02 -20 304 C-19.34 303.67 -18.68 303.34 -18 303 C-17.505 302.01 -17.01 301.02 -16.5 300 C-15 297 -15 297 -13 296 C-12.53476937 294.10466658 -12.53476937 294.10466658 -12.375 291.9375 C-12.25125 290.638125 -12.1275 289.33875 -12 288 C-11.01 288 -10.02 288 -9 288 C-8.34 284.37 -7.68 280.74 -7 277 C-6.34 277 -5.68 277 -5 277 C-4.855625 275.865625 -4.71125 274.73125 -4.5625 273.5625 C-4 270 -4 270 -3 269 C-2.79111292 267.00396794 -2.63224523 265.00257059 -2.5 263 C-2.11111111 257.11111111 -2.11111111 257.11111111 -1 256 C-0.89860448 254.62926945 -0.86603498 253.2533729 -0.8613348 251.8789053 C-0.85312313 250.53829482 -0.85312313 250.53829482 -0.84474558 249.17060131 C-0.84376747 248.17743139 -0.84278936 247.18426146 -0.84178162 246.16099548 C-0.83437465 244.59162974 -0.83437465 244.59162974 -0.82681805 242.99055964 C-0.81135921 239.45586633 -0.80305986 235.92119129 -0.79467773 232.38647461 C-0.78510579 229.86419003 -0.77509613 227.34190708 -0.76467896 224.81962585 C-0.74318135 219.37446064 -0.72475151 213.92929854 -0.70907402 208.48411369 C-0.68640151 200.61120598 -0.65825511 192.73832541 -0.62875474 184.86544067 C-0.58104664 172.09349259 -0.53779121 159.32153344 -0.49731445 146.54956055 C-0.45797588 134.13972105 -0.4165536 121.7298914 -0.37231445 109.32006836 C-0.36822804 108.17345614 -0.36822804 108.17345614 -0.36405908 107.00368004 C-0.35037988 103.16902831 -0.33665955 99.33437673 -0.32291877 95.49972522 C-0.20890346 63.66650375 -0.10217915 31.83326173 0 0 Z " fill="#876DE3" transform="translate(852,496)"/>
<path d="M0 0 C1.02480469 0.08378906 2.04960937 0.16757812 3.10546875 0.25390625 C4.46611879 0.35712798 5.82679746 0.45997265 7.1875 0.5625 C7.86103516 0.61857422 8.53457031 0.67464844 9.22851562 0.73242188 C12.02050149 0.93671352 14.55026659 1.10179663 17.29418945 0.48071289 C20.67802837 -0.12045817 23.63165613 0.15451596 27.0625 0.4296875 C41.06382027 1.37616152 55.11715958 1.15052848 69.14306641 1.13037109 C73.20858482 1.12463592 77.27403773 1.12799029 81.33955383 1.13394356 C84.50877365 1.13757469 87.67797818 1.13639956 90.84719849 1.13381577 C92.34612028 1.13315556 93.84504353 1.13394266 95.34396362 1.13629532 C102.60318166 1.14520663 109.77566167 1.12336684 116.97998047 0.11642456 C119 0 119 0 120.85491985 0.48538214 C123.10204065 1.02448018 125.03327858 1.12198304 127.34130192 1.1174612 C128.20781472 1.11821886 129.07432753 1.11897651 129.9670983 1.11975712 C130.9144648 1.11548003 131.8618313 1.11120295 132.83790588 1.10679626 C134.35281354 1.1059612 134.35281354 1.1059612 135.89832538 1.10510927 C139.2923485 1.10206614 142.68631333 1.09187825 146.08032227 1.08178711 C148.50951069 1.07823202 150.93869983 1.07514575 153.3678894 1.07249451 C158.6034732 1.06593744 163.8390433 1.05645643 169.07461739 1.04459953 C176.64764958 1.02762893 184.22067789 1.01807185 191.79372489 1.0107208 C204.08473723 0.99877452 216.37574346 0.98382437 228.66674805 0.96557617 C229.40238096 0.96448605 230.13801387 0.96339593 230.89593869 0.96227277 C241.34180185 0.94665344 251.78765764 0.92805823 262.23351365 0.9082749 C262.96944975 0.90688158 263.70538585 0.90548827 264.46362305 0.90405273 C265.19866385 0.9026592 265.93370466 0.90126567 266.69101942 0.89982992 C278.93710043 0.87681327 291.18317665 0.86148639 303.42927593 0.85249335 C310.98562727 0.84663353 318.54191299 0.83424127 326.09823846 0.81352056 C331.88305994 0.79822086 337.66785402 0.79321256 343.45269394 0.79207802 C345.82996504 0.78992332 348.20723578 0.78430711 350.58448982 0.7750473 C353.81942287 0.76293033 357.0541291 0.76300149 360.28907776 0.76622009 C361.23867498 0.75971229 362.18827221 0.75320449 363.16664511 0.74649948 C364.4625027 0.75154758 364.4625027 0.75154758 365.78453922 0.75669765 C366.53155914 0.75539614 367.27857906 0.75409463 368.04823595 0.75275367 C370 1 370 1 373 3 C335.04891175 3.96599932 297.1119289 4.16407647 259.15157843 4.16725707 C254.36670819 4.16776025 249.58183982 4.17007156 244.79697037 4.17275429 C228.88938145 4.18148747 212.98179911 4.18618317 197.07420777 4.18542381 C196.2276196 4.18538386 195.38103142 4.1853439 194.50878906 4.18530273 C193.66112823 4.18526185 192.8134674 4.18522097 191.94011988 4.18517885 C178.13083376 4.18477029 164.32157461 4.19441162 150.5122963 4.2084411 C136.20463859 4.2228589 121.89699403 4.22970892 107.58932889 4.22884732 C99.60689266 4.22851812 91.62448506 4.23114453 83.64205551 4.24202538 C76.87078588 4.2512004 70.09955799 4.25324741 63.32828479 4.24651595 C59.89006438 4.243291 56.45198794 4.24417192 53.01376534 4.2518692 C40.1183525 4.27884704 27.29733928 4.13177066 14.4367981 3.1098175 C13.43684276 3.03228625 12.43688741 2.95475499 11.4066304 2.87487429 C10.48727301 2.79217565 9.56791563 2.70947701 8.62069893 2.62427235 C7.82082656 2.55250304 7.02095419 2.48073373 6.19684327 2.4067896 C3.8389791 1.97018375 2.08233912 1.16940455 0 0 Z " fill="#758AE7" transform="translate(259,848)"/>
<path d="M0 0 C0.33 0 0.66 0 1 0 C3.16104171 7.91191303 2.9267309 14.90117782 2 23 C1.90203125 23.93328125 1.8040625 24.8665625 1.703125 25.828125 C1.48299483 27.88698958 1.24395331 29.94382213 1 32 C1.66 32 2.32 32 3 32 C3.12647975 38.45046729 3.12647975 38.45046729 2.50439453 41.15332031 C1.78282669 45.22567319 1.85752399 49.23156519 1.8671875 53.359375 C1.86623077 54.26318909 1.86527405 55.16700317 1.86428833 56.09820557 C1.86360912 58.0078539 1.86544533 59.91750457 1.86962891 61.82714844 C1.87495583 64.72596534 1.86968801 67.62462555 1.86328125 70.5234375 C1.86394256 72.385417 1.86522483 74.24739641 1.8671875 76.109375 C1.86516327 76.96593689 1.86313904 77.82249878 1.86105347 78.70501709 C1.87962886 83.56108668 2.16531783 88.29150549 2.77371216 93.1104126 C3.14825208 96.23795984 3.22351286 99.05352365 2.49829102 102.12451172 C1.85379542 105.84370284 1.87654038 109.49706524 1.90234375 113.2578125 C1.9037587 114.04268036 1.90517365 114.82754822 1.90663147 115.63619995 C1.91220462 118.13250625 1.92474178 120.62872111 1.9375 123.125 C1.94251941 124.8111966 1.94708154 126.49739464 1.95117188 128.18359375 C1.95932831 131.26710835 1.97000136 134.35058902 1.98413086 137.43408203 C2.00064149 141.14414764 1.99424609 144.85259488 1.96484375 148.5625 C1.95554207 150.37499905 1.94643486 152.18749911 1.9375 154 C1.92912109 154.91523437 1.92074219 155.83046875 1.91210938 156.7734375 C1.90888672 157.65257812 1.90566406 158.53171875 1.90234375 159.4375 C1.89710693 160.24058594 1.89187012 161.04367187 1.88647461 161.87109375 C1.9157026 164.18921062 1.9157026 164.18921062 3 167 C2.67 167.33 2.34 167.66 2 168 C1.90480632 170.7998972 1.87446056 173.57506174 1.88647461 176.37524414 C1.88632858 177.25321152 1.88618256 178.13117889 1.8860321 179.03575134 C1.88673156 181.95224435 1.89452545 184.86867433 1.90234375 187.78515625 C1.90420782 189.80154892 1.90563177 191.81794204 1.90663147 193.83433533 C1.91045756 199.15265138 1.92028861 204.4709403 1.93133545 209.78924561 C1.94154762 215.21170688 1.94612867 220.63417252 1.95117188 226.05664062 C1.9619108 236.70443903 1.97898831 247.35221726 2 258 C1.34 258 0.68 258 0 258 C0 172.86 0 87.72 0 0 Z " fill="#50D7ED" transform="translate(170,364)"/>
<path d="M0 0 C-0.33 0.66 -0.66 1.32 -1 2 C-3.109375 2.4921875 -3.109375 2.4921875 -5.75 2.875 C-10.18928233 3.71092763 -12.94336914 4.48024326 -16 8 C-19.37349026 15.02355522 -19.4565467 21.39722595 -19.4765625 29.10546875 C-19.49076245 30.47944426 -19.50622683 31.85340716 -19.52281189 33.22735596 C-19.56523454 37.06485071 -19.5889898 40.90227631 -19.60985184 44.73994064 C-19.63560112 48.90037183 -19.67831296 53.06063524 -19.71850586 57.22094727 C-19.80146424 66.16156279 -19.86547403 75.10224846 -19.92517185 84.043046 C-19.9889503 93.54371429 -20.05968483 103.04431823 -20.13232422 112.54492188 C-20.15627291 115.68454471 -20.18019364 118.82416775 -20.20410156 121.96379089 C-20.21012854 122.75522749 -20.21615552 123.54666409 -20.22236514 124.36208361 C-20.50537292 161.57456453 -20.75914797 198.78722455 -21 236 C-21.33 236 -21.66 236 -22 236 C-22.33 162.74 -22.66 89.48 -23 14 C-22.34 14 -21.68 14 -21 14 C-20.89945312 13.40832031 -20.79890625 12.81664062 -20.6953125 12.20703125 C-19.78585392 8.38855104 -18.99049314 5.7902295 -15.85546875 3.2890625 C-10.41570853 0.39788426 -6.11024412 -0.56576334 0 0 Z " fill="#6DC6FB" transform="translate(435,371)"/>
<path d="M0 0 C22.24380892 -0.04667878 44.48760978 -0.08196859 66.73145771 -0.10362434 C77.05918831 -0.11394583 87.38688852 -0.1280228 97.71459961 -0.15087891 C106.71409967 -0.17078611 115.71357772 -0.18371009 124.71309918 -0.18817699 C129.48019617 -0.1907889 134.24723018 -0.19694609 139.01430702 -0.21146011 C143.49823826 -0.22500188 147.98208038 -0.22922956 152.46603012 -0.22621536 C154.11442104 -0.22676706 155.76281485 -0.23076474 157.41118813 -0.23841095 C159.65670776 -0.24831902 161.90188815 -0.24598419 164.14741516 -0.24050903 C165.40566258 -0.24235262 166.66391001 -0.24419621 167.96028614 -0.24609566 C171 0 171 0 174 2 C142.13978366 2.94886664 110.28518673 3.11268258 78.41316605 3.12338257 C75.28251064 3.12498338 72.15186285 3.12853236 69.02120972 3.13256836 C45.6604601 3.15929246 22.34097864 3.03780783 -1 2 C-0.67 1.34 -0.34 0.68 0 0 Z " fill="#7E7AE6" transform="translate(458,849)"/>
<path d="M0 0 C3.72874275 1.36564367 6.8702417 3.07442735 10.1875 5.25 C16.78327654 9.5132304 23.47975377 13.55582832 30.2890625 17.46875 C42.32136351 24.385159 54.31977116 31.36355179 65.75 39.25 C70.06398852 42.1898416 74.67870395 44.3919503 79.3984375 46.60546875 C81.75626008 47.86934662 83.26309795 48.9972456 85 51 C82 52 82 52 79.11865234 50.60742188 C77.93475571 49.90508527 76.75762545 49.1912701 75.5859375 48.46875 C74.94799255 48.08648758 74.31004761 47.70422516 73.652771 47.31037903 C71.55424162 46.04982761 69.46474768 44.77504757 67.375 43.5 C65.91707358 42.62039298 64.45857191 41.74173875 62.99951172 40.86401367 C60.05056408 39.08815274 57.10497718 37.30691337 54.16210938 35.52099609 C50.52870331 33.317343 46.88460474 31.13270509 43.234375 28.95703125 C28.40146516 20.11372947 13.68681876 11.08308838 -1 2 C-0.67 1.34 -0.34 0.68 0 0 Z " fill="#65BBF1" transform="translate(459,385)"/>
<path d="M0 0 C0.99 0.66 1.98 1.32 3 2 C1.6875 3.5 1.6875 3.5 0 5 C-0.99 5 -1.98 5 -3 5 C-3.165 5.680625 -3.33 6.36125 -3.5 7.0625 C-5.00277563 10.0054356 -6.05555538 11.06523392 -8.5390625 13.125 C-14.08011507 17.85803424 -19.09445773 23.07893231 -24.171875 28.29882812 C-24.89632813 29.03423828 -25.62078125 29.76964844 -26.3671875 30.52734375 C-27.01800293 31.19499756 -27.66881836 31.86265137 -28.33935547 32.55053711 C-30 34 -30 34 -32 34 C-32.020625 34.70125 -32.04125 35.4025 -32.0625 36.125 C-33.44979209 40.3793624 -36.51624172 42.35307139 -40 45 C-40 40.85000151 -37.80929197 38.78335234 -35.3125 35.6875 C-34.82354248 35.07447021 -34.33458496 34.46144043 -33.83081055 33.82983398 C-26.00280038 24.15181353 -17.61147609 14.93199711 -8 7 C-6.49662722 5.69136463 -4.99659724 4.37887873 -3.5 3.0625 C-2.33333333 2.04166667 -1.16666667 1.02083333 0 0 Z " fill="#38BAE9" transform="translate(373,328)"/>
<path d="M0 0 C0.33 0 0.66 0 1 0 C1.7792273 11.67449468 2.05714276 23.27296851 1.97827148 34.97338867 C1.94804274 42.0683508 2.21374963 49.04721833 2.87890625 56.109375 C2.99820247 58.9570913 2.58380079 61.22809547 2 64 C2.37088905 66.92776009 2.37088905 66.92776009 2.84375 69.83984375 C3 72 3 72 2.51586914 74.56518555 C1.88245748 78.782634 1.87561736 82.8601041 1.90234375 87.1171875 C1.9037587 87.97434357 1.90517365 88.83149963 1.90663147 89.71463013 C1.91219978 92.4347899 1.92474636 95.15486538 1.9375 97.875 C1.9425191 99.72656131 1.94708129 101.57812391 1.95117188 103.4296875 C1.96215883 107.95315715 1.97940148 112.47656432 2 117 C0 115 0 115 -0.24609566 112.95790672 C-0.24425207 112.11170076 -0.24240849 111.2654948 -0.24050903 110.39364624 C-0.24325836 109.4232692 -0.24600769 108.45289215 -0.24884033 107.45310974 C-0.24164978 106.38496536 -0.23445923 105.31682098 -0.22705078 104.21630859 C-0.22748886 102.53337959 -0.22748886 102.53337959 -0.22793579 100.81645203 C-0.22653815 97.09370289 -0.21095644 93.37115184 -0.1953125 89.6484375 C-0.19158392 87.07296864 -0.18873622 84.49749837 -0.18673706 81.92202759 C-0.17987096 75.82696847 -0.16409479 69.73199157 -0.14403808 63.63696349 C-0.12170114 56.69872788 -0.11069121 49.76048889 -0.10064721 42.82222629 C-0.07972912 28.5481124 -0.04453938 14.27405874 0 0 Z " fill="#61BCEE" transform="translate(170,622)"/>
<path d="M0 0 C0.99 1.32 1.98 2.64 3 4 C2.67 4.66 2.34 5.32 2 6 C1.90668986 8.83780737 1.87424639 11.65089774 1.88647461 14.48876953 C1.88632858 15.36688293 1.88618256 16.24499634 1.8860321 17.14971924 C1.88673042 20.0607752 1.89451905 22.97176768 1.90234375 25.8828125 C1.90420822 27.89777593 1.90563198 29.91273981 1.90663147 31.92770386 C1.91045438 37.2377853 1.92028276 42.5478395 1.93133545 47.85791016 C1.94155441 53.27375927 1.94613013 58.68961278 1.95117188 64.10546875 C1.96190521 74.73699115 1.97897894 85.36849331 2 96 C1.34 96 0.68 96 0 96 C0 64.32 0 32.64 0 0 Z " fill="#58CBEE" transform="translate(170,526)"/>
<path d="M0 0 C-0.33 0.66 -0.66 1.32 -1 2 C-3.109375 2.4921875 -3.109375 2.4921875 -5.75 2.875 C-10.18928233 3.71092763 -12.94336914 4.48024326 -16 8 C-18.42211411 13.50145516 -19.44456634 18.12807218 -19.43237305 24.16015625 C-19.4425647 24.93185654 -19.45275635 25.70355682 -19.46325684 26.49864197 C-19.49317202 29.02000389 -19.50261945 31.5409846 -19.51171875 34.0625 C-19.52858143 35.82227825 -19.54673379 37.58204457 -19.56611633 39.34179688 C-19.61345006 43.95139844 -19.64336666 48.56095162 -19.66955566 53.17071533 C-19.69944544 57.88343862 -19.74594671 62.5959955 -19.79101562 67.30859375 C-19.87685936 76.53897515 -19.94428848 85.76939097 -20 95 C-20.33 95 -20.66 95 -21 95 C-21.33 69.92 -21.66 44.84 -22 19 C-22.33 19 -22.66 19 -23 19 C-23 17.35 -23 15.7 -23 14 C-22.34 14 -21.68 14 -21 14 C-20.89945312 13.40832031 -20.79890625 12.81664062 -20.6953125 12.20703125 C-19.78585392 8.38855104 -18.99049314 5.7902295 -15.85546875 3.2890625 C-10.41570853 0.39788426 -6.11024412 -0.56576334 0 0 Z " fill="#5FC3EF" transform="translate(435,371)"/>
<path d="M0 0 C2.7275511 0.24138378 5.37627687 0.32914158 8.11181641 0.27539062 C8.11181641 0.93539063 8.11181641 1.59539062 8.11181641 2.27539062 C10.42181641 2.60539062 12.73181641 2.93539063 15.11181641 3.27539062 C15.11181641 3.60539062 15.11181641 3.93539063 15.11181641 4.27539062 C8.2568286 3.75336751 1.51844526 2.93058169 -5.25927734 1.77539062 C-14.64356132 0.48239994 -23.97185473 0.13232085 -33.43505859 0.17773438 C-35.14088104 0.1798568 -35.14088104 0.1798568 -36.88116455 0.18202209 C-40.46686582 0.1875612 -44.05250161 0.20010185 -47.63818359 0.21289062 C-50.08870352 0.21791351 -52.53922443 0.22247503 -54.98974609 0.2265625 C-60.95591378 0.23751059 -66.922044 0.2541867 -72.88818359 0.27539062 C-72.88818359 -0.05460937 -72.88818359 -0.38460938 -72.88818359 -0.72460938 C-48.00740728 -2.91525963 -24.78159943 -2.704582 0 0 Z " fill="#1DAFE7" transform="translate(543.88818359375,257.724609375)"/>
<path d="M0 0 C0.66 0 1.32 0 2 0 C1.55685658 5.42003509 1.06242392 10.81631372 0.28125 16.19921875 C-2.15319881 33.12164445 -2.70500967 49.9329352 -3 67 C-3.33 67 -3.66 67 -4 67 C-4.0509432 60.04405871 -4.08583535 53.08816601 -4.10986328 46.13208008 C-4.11988618 43.76845502 -4.13350806 41.40484225 -4.15087891 39.04125977 C-4.17529069 35.63294429 -4.18652054 32.22479357 -4.1953125 28.81640625 C-4.20563507 27.76916885 -4.21595764 26.72193146 -4.22659302 25.64295959 C-4.22752497 19.47143503 -3.57778023 13.95963819 -2 8 C-1.814375 7.05125 -1.62875 6.1025 -1.4375 5.125 C-1 3 -1 3 0 0 Z " fill="#25AFE8" transform="translate(268,444)"/>
<path d="M0 0 C0.99 0.33 1.98 0.66 3 1 C3.6953125 2.99609375 3.6953125 2.99609375 4.125 5.4375 C4.73123617 8.8273078 4.73123617 8.8273078 6 12 C6.65119497 20.46553457 4.6708601 28.98741969 2 37 C1.34 37 0.68 37 0 37 C-0.66 38.32 -1.32 39.64 -2 41 C-1.68817931 39.58318366 -1.37551263 38.16655349 -1.0625 36.75 C-0.88847656 35.96109375 -0.71445312 35.1721875 -0.53515625 34.359375 C-0.21499237 32.94784957 0.13016486 31.54112498 0.52514648 30.14868164 C1.04596271 27.79202168 1.12947061 25.67432204 1.1328125 23.26171875 C1.13474609 21.90723633 1.13474609 21.90723633 1.13671875 20.52539062 C1.13285156 19.58888672 1.12898437 18.65238281 1.125 17.6875 C1.12886719 16.76259766 1.13273438 15.83769531 1.13671875 14.88476562 C1.12951212 9.81490426 0.86831688 4.99626779 0 0 Z " fill="#6C6AEB" transform="translate(657,742)"/>
<path d="M0 0 C0.33 0 0.66 0 1 0 C1.91495209 4.67652322 2.16055061 9.21872141 2.16796875 13.96875 C2.17129715 14.7261145 2.17462555 15.483479 2.17805481 16.26379395 C2.18309888 17.86400755 2.18546392 19.46423158 2.18530273 21.06445312 C2.18746845 23.46502988 2.20559311 25.86513062 2.22460938 28.265625 C2.25791721 37.70894542 1.66511393 46.67913565 0 56 C-2 54 -2 54 -2.265625 50.76953125 C-2.26046875 49.46371094 -2.2553125 48.15789063 -2.25 46.8125 C-2.25515625 45.51957031 -2.2603125 44.22664062 -2.265625 42.89453125 C-2 39 -2 39 -0.99560547 35.73681641 C0.06475001 31.7569731 0.22833523 28.4277364 0.1953125 24.31640625 C0.19106766 23.26585304 0.19106766 23.26585304 0.18673706 22.19407654 C0.17564885 19.9833683 0.15056703 17.77308329 0.125 15.5625 C0.11495546 14.05274028 0.1058322 12.54297412 0.09765625 11.03320312 C0.07574714 7.35533403 0.04129758 3.6777084 0 0 Z " fill="#4B71EB" transform="translate(717,471)"/>
<path d="M0 0 C1.2923604 3.57777053 0.77964228 5.53467916 -0.765625 8.96484375 C-3.50917663 14.11799055 -6.40106087 15.79649784 -11.8203125 17.67382812 C-13.27050781 18.1137207 -13.27050781 18.1137207 -14.75 18.5625 C-15.70132813 18.89056641 -16.65265625 19.21863281 -17.6328125 19.55664062 C-23.43734784 21.48485956 -28.90532345 22.54227223 -35 23 C-35 22.34 -35 21.68 -35 21 C-34.30962646 20.7733667 -33.61925293 20.5467334 -32.90795898 20.31323242 C-29.75006811 19.27454659 -26.59378167 18.23106505 -23.4375 17.1875 C-21.80844727 16.65286133 -21.80844727 16.65286133 -20.14648438 16.10742188 C-17.08924792 15.09453807 -14.04284841 14.0552302 -11 13 C-10.2562915 12.75290283 -9.51258301 12.50580566 -8.74633789 12.2512207 C-5.68496865 11.12452499 -4.19903198 10.31675516 -2.44140625 7.51953125 C-2.15136719 6.62621094 -1.86132812 5.73289062 -1.5625 4.8125 C-1.25441406 3.91144531 -0.94632813 3.01039063 -0.62890625 2.08203125 C-0.42136719 1.39496094 -0.21382812 0.70789063 0 0 Z " fill="#646DEB" transform="translate(728,586)"/>
<path d="M0 0 C1.52835982 3.05671964 0.77871069 5.79798812 0 9 C-1.21283327 12.38705878 -2.57180855 15.6985528 -4 19 C-4.66 19 -5.32 19 -6 19 C-6.10957031 19.64324219 -6.21914063 20.28648437 -6.33203125 20.94921875 C-7.24172336 26.13372419 -8.27170095 31.25604812 -9.5 36.375 C-11.03582826 42.86913676 -12.08090388 49.39332081 -13 56 C-13.33 56 -13.66 56 -14 56 C-14.17771755 50.01228576 -13.58901315 44.60761347 -12.375 38.75 C-12.11203125 37.46367676 -12.11203125 37.46367676 -11.84375 36.15136719 C-10.4878117 29.77334919 -8.84797942 23.50234996 -7 17.25 C-6.7632959 16.44143555 -6.5265918 15.63287109 -6.28271484 14.79980469 C-4.67193793 9.55140209 -2.57006577 4.85210693 0 0 Z " fill="#1FABE7" transform="translate(308,415)"/>
<path d="M0 0 C0.33 0 0.66 0 1 0 C1.19594676 3.14536768 1.3803401 6.29130614 1.5625 9.4375 C1.61857422 10.33533203 1.67464844 11.23316406 1.73242188 12.15820312 C1.78076172 13.01220703 1.82910156 13.86621094 1.87890625 14.74609375 C1.9260376 15.53685303 1.97316895 16.3276123 2.02172852 17.14233398 C2 19 2 19 1 20 C0.76807135 21.51469448 0.58784762 23.03754562 0.4375 24.5625 C0.35371094 25.38878906 0.26992188 26.21507812 0.18359375 27.06640625 C0.12300781 27.70449219 0.06242187 28.34257812 0 29 C0.66 29.33 1.32 29.66 2 30 C1.98839844 30.67546875 1.97679687 31.3509375 1.96484375 32.046875 C1.95582031 32.93890625 1.94679688 33.8309375 1.9375 34.75 C1.92589844 35.63171875 1.91429687 36.5134375 1.90234375 37.421875 C1.90084054 39.92447077 1.90084054 39.92447077 2.53125 41.96875 C3.1552619 44.67280156 2.85730079 46.99852592 2.5625 49.75 C2.46066406 50.73484375 2.35882813 51.7196875 2.25390625 52.734375 C2.17011719 53.48203125 2.08632813 54.2296875 2 55 C1.67 55 1.34 55 1 55 C-0.78041461 44.15854676 -1.19950266 33.41093379 -1.1875 22.4375 C-1.18814453 21.14183105 -1.18878906 19.84616211 -1.18945312 18.51123047 C-1.15374759 12.25383508 -0.97484061 6.18438884 0 0 Z " fill="#29AAE9" transform="translate(293,472)"/>
<path d="M0 0 C0.66 0.33 1.32 0.66 2 1 C-0.06057175 2.91877545 -2.12337063 4.83505798 -4.1875 6.75 C-4.76564453 7.28882813 -5.34378906 7.82765625 -5.93945312 8.3828125 C-8.47466869 10.73182579 -10.99833246 12.99868086 -13.7109375 15.14453125 C-15.91881628 16.93419408 -17.63218343 18.75120535 -19.4375 20.9375 C-22.38065654 24.3905455 -25.42715413 27.21143737 -29 30 C-29.33 29.01 -29.66 28.02 -30 27 C-29.278125 26.67 -28.55625 26.34 -27.8125 26 C-24.47080015 23.62368011 -23.07122571 21.18413768 -21.11328125 17.64453125 C-20.74589844 17.10183594 -20.37851562 16.55914062 -20 16 C-19.34 16 -18.68 16 -18 16 C-18 15.34 -18 14.68 -18 14 C-16.609375 12.5625 -16.609375 12.5625 -14.75 11 C-14.14671875 10.484375 -13.5434375 9.96875 -12.921875 9.4375 C-11 8 -11 8 -8.828125 6.9375 C-6.82151758 6.13620677 -6.82151758 6.13620677 -6 4 C-4.35178756 2.96986723 -2.68496298 1.96885372 -1 1 C-0.67 0.67 -0.34 0.34 0 0 Z " fill="#39BEE9" transform="translate(352,308)"/>
<path d="M0 0 C0.66 0.33 1.32 0.66 2 1 C1.67 1.66 1.34 2.32 1 3 C-0.485 3.4640625 -0.485 3.4640625 -2 3.9375 C-2.99 4.288125 -3.98 4.63875 -5 5 C-5.33 5.99 -5.66 6.98 -6 8 C-8.35085963 9.5916668 -10.66685883 11.03251282 -13.125 12.4375 C-13.77726563 12.81970703 -14.42953125 13.20191406 -15.1015625 13.59570312 C-17.06177596 14.74110563 -19.02950645 15.8723893 -21 17 C-21.6494458 17.37366699 -22.2988916 17.74733398 -22.96801758 18.13232422 C-25.94184274 19.83974281 -28.90756041 21.51562899 -32 23 C-32 22.01 -32 21.02 -32 20 C-30.02691815 18.54113387 -28.12983737 17.31649374 -26.015625 16.09375 C-25.40362244 15.7277771 -24.79161987 15.3618042 -24.16107178 14.98474121 C-22.19670966 13.81270951 -20.22384707 12.65597321 -18.25 11.5 C-16.29232325 10.34109003 -14.33651862 9.17910842 -12.3817749 8.01525879 C-11.16402641 7.29157964 -9.94425965 6.57128286 -8.722229 5.8548584 C-5.67516537 4.05775138 -2.77890872 2.19109541 0 0 Z " fill="#75A2F2" transform="translate(590,526)"/>
<path d="M0 0 C0.99 0.66 1.98 1.32 3 2 C1.6875 3.5 1.6875 3.5 0 5 C-0.99 5 -1.98 5 -3 5 C-3.165 5.680625 -3.33 6.36125 -3.5 7.0625 C-5.72961439 11.42882818 -9.25893875 13.91720911 -13 17 C-14.50409864 18.30780102 -16.0042945 19.62010814 -17.5 20.9375 C-18.66666667 21.95833333 -19.83333333 22.97916667 -21 24 C-21 20.45705078 -20.52369695 20.11736033 -18.18359375 17.63671875 C-17.58353516 16.99669922 -16.98347656 16.35667969 -16.36523438 15.69726562 C-15.72908203 15.03404297 -15.09292969 14.37082031 -14.4375 13.6875 C-13.82841797 13.03587891 -13.21933594 12.38425781 -12.59179688 11.71289062 C-8.61352913 7.50729329 -4.45396742 3.69730886 0 0 Z " fill="#4AC2EB" transform="translate(373,328)"/>
<path d="M0 0 C0.33 0.66 0.66 1.32 1 2 C-0.76153962 7.18675555 -2.74659201 10.38460321 -7 14 C-7.99 14.33 -8.98 14.66 -10 15 C-10.66 15.763125 -11.32 16.52625 -12 17.3125 C-15.66886149 21.17268249 -20.91855602 22.7886341 -26 24 C-26.99 23.67 -27.98 23.34 -29 23 C-27.94941406 22.52691406 -26.89882813 22.05382812 -25.81640625 21.56640625 C-14.78594732 16.43479922 -6.318062 10.71323556 0 0 Z " fill="#5951E7" transform="translate(653,785)"/>
<path d="M0 0 C0.33 0 0.66 0 1 0 C1.16841537 4.58960522 1.3288849 9.179396 1.48217773 13.76953125 C1.53536215 15.32917651 1.59067114 16.88875089 1.64819336 18.44824219 C1.73076674 20.6971102 1.80555406 22.94612707 1.87890625 25.1953125 C1.91945885 26.23161301 1.91945885 26.23161301 1.96083069 27.28884888 C2.12721507 32.75514476 1.41688009 37.73730254 0 43 C-0.33 43 -0.66 43 -1 43 C-2.40044041 31.371343 -2.09657994 19.69063004 -2 8 C-1.67 8 -1.34 8 -1 8 C-0.67 5.36 -0.34 2.72 0 0 Z " fill="#889BF2" transform="translate(747,476)"/>
<path d="M0 0 C0 0.33 0 0.66 0 1 C-0.65895264 0.97905273 -1.31790527 0.95810547 -1.99682617 0.93652344 C-18.67825815 0.28061814 -18.67825815 0.28061814 -34.70703125 4.22265625 C-37 5 -37 5 -40 4 C-38.5459375 3.5978125 -38.5459375 3.5978125 -37.0625 3.1875 C-35.5465625 2.5996875 -35.5465625 2.5996875 -34 2 C-33.67 1.01 -33.34 0.02 -33 -1 C-31.9275 -0.979375 -30.855 -0.95875 -29.75 -0.9375 C-26.28046296 -0.847313 -26.28046296 -0.847313 -24.1171875 -1.4921875 C-16.24188686 -3.38109725 -7.72825524 -1.9149659 0 0 Z " fill="#4F74EA" transform="translate(538,641)"/>
<path d="M0 0 C1.50017141 4.41887226 0.45392333 7.4141196 -1.3125 11.609375 C-4.01654039 15.44009888 -7.56867572 16.30362989 -11.88671875 17.78515625 C-16.65188584 19.64458782 -20.14406494 22.71934558 -24 26 C-25.32667065 27.00882247 -26.65808971 28.0115393 -28 29 C-26.6284197 26.04582705 -25.13179822 23.47288594 -23 21 C-22.01 20.67 -21.02 20.34 -20 20 C-19.319375 19.319375 -18.63875 18.63875 -17.9375 17.9375 C-17.298125 17.298125 -16.65875 16.65875 -16 16 C-15.34 16 -14.68 16 -14 16 C-13.67 15.34 -13.34 14.68 -13 14 C-11.01014051 13.61067967 -9.00800456 13.28112064 -7 13 C-6.01 12.67 -5.02 12.34 -4 12 C-2.74674715 9.21473551 -2.74674715 9.21473551 -1.8125 5.9375 C-1.46832031 4.83277344 -1.12414062 3.72804688 -0.76953125 2.58984375 C-0.38861328 1.30787109 -0.38861328 1.30787109 0 0 Z " fill="#505DEA" transform="translate(598,699)"/>
<path d="M0 0 C0.66 0.33 1.32 0.66 2 1 C1.01 1.33 0.02 1.66 -1 2 C-1.33 2.99 -1.66 3.98 -2 5 C-4.6171875 6.75390625 -4.6171875 6.75390625 -7.875 8.5625 C-10.9895427 10.3073944 -14.02880953 12.01920635 -17 14 C-17.99 14 -18.98 14 -20 14 C-20.33 14.99 -20.66 15.98 -21 17 C-22.84765625 18.16796875 -22.84765625 18.16796875 -25.0625 19.1875 C-25.79597656 19.53167969 -26.52945313 19.87585938 -27.28515625 20.23046875 C-27.85105469 20.48441406 -28.41695313 20.73835937 -29 21 C-29 20.01 -29 19.02 -29 18 C-27.30688477 16.65307617 -27.30688477 16.65307617 -24.94140625 15.29296875 C-24.07966797 14.78830078 -23.21792969 14.28363281 -22.33007812 13.76367188 C-21.41677734 13.24353516 -20.50347656 12.72339844 -19.5625 12.1875 C-17.79166009 11.16241365 -16.02212016 10.13507818 -14.25390625 9.10546875 C-12.94897217 8.3462915 -12.94897217 8.3462915 -11.61767578 7.57177734 C-7.6495144 5.18910406 -3.81692444 2.61636957 0 0 Z " fill="#74A3F2" transform="translate(539,558)"/>
<path d="M0 0 C2.48779618 2.21687846 3.66055021 4.13970589 4.83203125 7.24609375 C5.15308838 8.07834473 5.47414551 8.9105957 5.80493164 9.76806641 C6.1374292 10.64897949 6.46992676 11.52989258 6.8125 12.4375 C9.53867278 19.49952524 12.43921327 26.23138849 16.06640625 32.8828125 C16.37449219 33.58148437 16.68257813 34.28015625 17 35 C16.67 35.66 16.34 36.32 16 37 C14.82823482 34.87767021 13.66245215 32.75242209 12.5 30.625 C12.16613281 30.02171875 11.83226562 29.4184375 11.48828125 28.796875 C9 24.2265625 9 24.2265625 9 22 C8.34 22 7.68 22 7 22 C4.46231936 17.3860352 3.14184061 13.07694421 2 8 C1.62861699 6.49910038 1.25373792 4.99906057 0.875 3.5 C0.58625 2.345 0.2975 1.19 0 0 Z " fill="#2BA0E8" transform="translate(278,577)"/>
<path d="M0 0 C0.33 0.66 0.66 1.32 1 2 C0.07543945 4.02783203 0.07543945 4.02783203 -1.38671875 6.5078125 C-1.91330078 7.41273438 -2.43988281 8.31765625 -2.98242188 9.25 C-3.54509766 10.19875 -4.10777344 11.1475 -4.6875 12.125 C-8.3320037 18.33319372 -11.86521502 24.51686805 -15 31 C-16.21097999 27.36706002 -15.67110261 26.46007593 -14.25 23 C-13.73179687 21.700625 -13.73179687 21.700625 -13.203125 20.375 C-12 18 -12 18 -10.4765625 16.4921875 C-8.55976321 14.55510462 -8.00638117 12.69114517 -7.125 10.125 C-5.42296813 5.61263643 -3.68440982 3.07034151 0 0 Z " fill="#2BBAE8" transform="translate(302,365)"/>
<path d="M0 0 C6.71989482 0.66717482 13.30331179 1.68339134 19.9375 2.9375 C20.88173828 3.10701172 21.82597656 3.27652344 22.79882812 3.45117188 C23.69923828 3.62068359 24.59964844 3.79019531 25.52734375 3.96484375 C26.33937256 4.1155835 27.15140137 4.26632324 27.98803711 4.42163086 C30 5 30 5 32 7 C27.545 7.495 27.545 7.495 23 8 C22.67 7.01 22.34 6.02 22 5 C20.33710938 4.90912109 20.33710938 4.90912109 18.640625 4.81640625 C17.1770718 4.73197049 15.71353075 4.64732401 14.25 4.5625 C13.52039063 4.52318359 12.79078125 4.48386719 12.0390625 4.44335938 C8.5727027 4.23852902 5.34666974 3.9147998 2 3 C2 2.34 2 1.68 2 1 C1.34 0.67 0.68 0.34 0 0 Z " fill="#4D72E8" transform="translate(427,722)"/>
<path d="M0 0 C1.36791689 4.10375068 0.12356655 5.67816753 -1.5625 9.625 C-4.02263744 15.50313327 -6.27739817 21.42017573 -8.375 27.4375 C-8.63740479 28.18918457 -8.89980957 28.94086914 -9.17016602 29.71533203 C-9.78271814 31.47598302 -10.39176777 33.23785201 -11 35 C-12.10202191 31.69393428 -11.96143206 31.19186949 -10.8203125 28.0859375 C-10.55089844 27.32410156 -10.28148437 26.56226563 -10.00390625 25.77734375 C-9.42645342 24.19897267 -8.84834835 22.62084003 -8.26953125 21.04296875 C-6.36129027 15.64382246 -5.44487609 10.7149467 -5 5 C-3.68 4.67 -2.36 4.34 -1 4 C-0.67 2.68 -0.34 1.36 0 0 Z " fill="#18B1E6" transform="translate(285,396)"/>
<path d="M0 0 C1 2 1 2 0.47094727 3.80004883 C0.02319946 4.86775513 0.02319946 4.86775513 -0.43359375 5.95703125 C-0.75263672 6.74013672 -1.07167969 7.52324219 -1.40039062 8.33007812 C-2.08704815 9.97365951 -2.7745366 11.61689403 -3.46289062 13.25976562 C-5.15017168 17.40497723 -6.20436111 20.47135779 -6 25 C-7.09581946 27.52919046 -8.52717694 29.65268826 -10 32 C-10.66 32 -11.32 32 -12 32 C-12.33 32.66 -12.66 33.32 -13 34 C-12.32222966 29.90465891 -11.05096367 26.28002901 -9.53125 22.421875 C-9.29088013 21.80983215 -9.05051025 21.19778931 -8.80285645 20.56719971 C-8.29716686 19.2822918 -7.78944144 17.99818344 -7.27978516 16.71484375 C-6.49770108 14.74420735 -5.72300256 12.77078329 -4.94921875 10.796875 C-1.14102572 1.14102572 -1.14102572 1.14102572 0 0 Z " fill="#4451E8" transform="translate(650,645)"/>
<path d="M0 0 C1.36637746 4.09913237 -0.19629218 6.59533567 -1.8125 10.375 C-2.08642578 11.035 -2.36035156 11.695 -2.64257812 12.375 C-3.42237893 14.25250601 -4.21098804 16.12634629 -5 18 C-5.67080866 19.66500389 -6.33944888 21.33090011 -7 23 C-7.66 23 -8.32 23 -9 23 C-9.66 24.32 -10.32 25.64 -11 27 C-10.38696372 21.59491957 -8.55619307 17.07560955 -6.4375 12.125 C-6.10814453 11.34125 -5.77878906 10.5575 -5.43945312 9.75 C-4.63203214 7.83091244 -3.81680231 5.9151135 -3 4 C-2.34 4 -1.68 4 -1 4 C-0.67 2.68 -0.34 1.36 0 0 Z " fill="#626FEC" transform="translate(662,617)"/>
<path d="M0 0 C1.21939588 3.65818764 0.31962815 4.76106612 -1.24609375 8.1171875 C-2.16738921 10.19134372 -2.16738921 10.19134372 -2.4375 13.375 C-3.15723045 18.0132629 -4.95571344 21.80683548 -7 26 C-7.66 26 -8.32 26 -9 26 C-9.66 27.32 -10.32 28.64 -11 30 C-10.34695118 26.10982879 -9.19461184 22.69556088 -7.71484375 19.04296875 C-7.26689453 17.93115234 -6.81894531 16.81933594 -6.35742188 15.67382812 C-5.88884766 14.52333984 -5.42027344 13.37285156 -4.9375 12.1875 C-4.46505859 11.01767578 -3.99261719 9.84785156 -3.50585938 8.64257812 C-2.34111284 5.76012457 -1.17236766 2.87936035 0 0 Z " fill="#5368EB" transform="translate(683,560)"/>
<path d="M0 0 C4.15674643 3.75448065 4.82937515 5.78187699 5.25 11.25 C4.85839985 17.1240023 3.43167697 21.97797385 -1 26 C-1.99 25.67 -2.98 25.34 -4 25 C-3.38125 24.29875 -2.7625 23.5975 -2.125 22.875 C1.00152733 18.64499244 2.30486623 15.22769793 1.6875 10 C1.47175398 8.66442941 1.2429407 7.33089254 1 6 C0.814375 4.845 0.62875 3.69 0.4375 2.5 C0.293125 1.675 0.14875 0.85 0 0 Z " fill="#78A5F3" transform="translate(621,484)"/>
<path d="M0 0 C0.33 0 0.66 0 1 0 C1.33909085 6.38026196 0.0731466 12.11719866 -1.375 18.3125 C-1.59671875 19.31345703 -1.8184375 20.31441406 -2.046875 21.34570312 C-3.74573428 28.74573428 -3.74573428 28.74573428 -6 31 C-5.86722656 30.16597656 -5.73445312 29.33195313 -5.59765625 28.47265625 C-4.40031948 20.88383125 -4.40031948 20.88383125 -3.5625 13.25 C-3.09555938 8.58924086 -1.64153361 4.36709885 0 0 Z " fill="#526CEA" transform="translate(715,528)"/>
<path d="M0 0 C1.003813 2.63424866 1.10520035 3.72701174 0.07421875 6.40234375 C-0.38339844 7.23894531 -0.84101562 8.07554687 -1.3125 8.9375 C-3.09571486 12.24334531 -4.60666337 15.51366843 -6 19 C-8.54842397 22.05810876 -11.93389188 24.47897777 -15 27 C-15.66 26.67 -16.32 26.34 -17 26 C-16.34644531 25.41605469 -16.34644531 25.41605469 -15.6796875 24.8203125 C-8.22427018 17.81673865 -3.85140228 9.37929731 0 0 Z " fill="#4E5CE8" transform="translate(573,706)"/>
<path d="M0 0 C1.08817376 3.26452127 0.86714786 3.85717985 0 7 C-0.1421701 8.58567839 -0.24504041 10.17518632 -0.31640625 11.765625 C-0.35830078 12.65507813 -0.40019531 13.54453125 -0.44335938 14.4609375 C-0.50233398 15.84152344 -0.50233398 15.84152344 -0.5625 17.25 C-0.60568359 18.18585937 -0.64886719 19.12171875 -0.69335938 20.0859375 C-0.7991805 22.39048641 -0.90126557 24.69513839 -1 27 C-2.63163336 24.12594877 -3.24944925 22.07585773 -3.23046875 18.77734375 C-3.22756836 17.59881836 -3.22756836 17.59881836 -3.22460938 16.39648438 C-3.21236328 15.58501953 -3.20011719 14.77355469 -3.1875 13.9375 C-3.18685547 13.12216797 -3.18621094 12.30683594 -3.18554688 11.46679688 C-3.15980554 7.98599679 -3.11145888 5.33437664 -2 2 C-1.34 2 -0.68 2 0 2 C0 1.34 0 0.68 0 0 Z " fill="#5061E7" transform="translate(560,743)"/>
<path d="M0 0 C7.26495874 0.17958325 14.06284097 1.60992484 21.0625 3.4375 C21.9078833 3.65494873 22.7532666 3.87239746 23.62426758 4.09643555 C24.41986084 4.31082275 25.2154541 4.52520996 26.03515625 4.74609375 C26.7506665 4.93872803 27.46617676 5.1313623 28.20336914 5.32983398 C30 6 30 6 32 8 C28.98968256 8.93423645 28.13349732 9.04449911 25 8 C25 7.34 25 6.68 25 6 C24.28457031 5.89042969 23.56914063 5.78085937 22.83203125 5.66796875 C15.13268658 4.44284664 7.57644362 2.83301055 0 1 C0 0.67 0 0.34 0 0 Z " fill="#22A4E7" transform="translate(539,287)"/>
<path d="M0 0 C0.33 0 0.66 0 1 0 C0.88482579 2.35500948 0.75812022 4.70849073 0.625 7.0625 C0.55539062 8.37347656 0.48578125 9.68445313 0.4140625 11.03515625 C0.00194564 14.98136957 -0.79756567 18.24117073 -2 22 C-2.66 22 -3.32 22 -4 22 C-4.33 22.66 -4.66 23.32 -5 24 C-4.39496146 18.3444819 -3.37814297 12.99786009 -1.9375 7.5 C-1.75123047 6.77296875 -1.56496094 6.0459375 -1.37304688 5.296875 C-0.91973545 3.53012276 -0.4604998 1.76489225 0 0 Z " fill="#5A6CEB" transform="translate(741,541)"/>
<path d="M0 0 C0.33 0 0.66 0 1 0 C1.12117188 1.11117187 1.24234375 2.22234375 1.3671875 3.3671875 C2.25606791 11.32329311 3.19567437 19.18765393 5 27 C1.68275433 24.34620347 0.14991334 21.79851743 -0.76171875 17.63671875 C-1.29144736 11.77496777 -0.56298649 5.84288676 0 0 Z " fill="#4A71E8" transform="translate(469,687)"/>
<path d="M0 0 C2 2 2 2 2.01171875 3.98828125 C1.90472656 4.75527344 1.79773438 5.52226563 1.6875 6.3125 C1.57664062 7.11429688 1.46578125 7.91609375 1.3515625 8.7421875 C1.17753906 9.85980469 1.17753906 9.85980469 1 11 C0.855625 11.969375 0.71125 12.93875 0.5625 13.9375 C0 16 0 16 -2 18 C-2.99 17.67 -3.98 17.34 -5 17 C-4.34 17 -3.68 17 -3 17 C-2.87625 15.865625 -2.7525 14.73125 -2.625 13.5625 C-2.05770917 8.96662215 -1.07315212 4.50098751 0 0 Z " fill="#6878EC" transform="translate(609,644)"/>
<path d="M0 0 C-0.99 0.495 -0.99 0.495 -2 1 C-2 1.66 -2 2.32 -2 3 C-3.32064453 3.19916016 -3.32064453 3.19916016 -4.66796875 3.40234375 C-5.82941406 3.57894531 -6.99085938 3.75554688 -8.1875 3.9375 C-9.91033203 4.19853516 -9.91033203 4.19853516 -11.66796875 4.46484375 C-14.46325212 4.91379313 -17.22933586 5.42082162 -20 6 C-19.67 4.68 -19.34 3.36 -19 2 C-19 2.66 -19 3.32 -19 4 C-18.04738281 3.71125 -17.09476563 3.4225 -16.11328125 3.125 C-14.23189453 2.568125 -14.23189453 2.568125 -12.3125 2 C-10.45044922 1.443125 -10.45044922 1.443125 -8.55078125 0.875 C-5.4989981 0.12296543 -3.11101638 -0.19034899 0 0 Z " fill="#6267EC" transform="translate(663,682)"/>
<path d="M0 0 C4.04301175 1.48518799 7.61146256 3.42877998 11.3125 5.625 C12.38113281 6.25664063 13.44976562 6.88828125 14.55078125 7.5390625 C15.76314453 8.26222656 15.76314453 8.26222656 17 9 C14.19191053 10.13787512 13.14727583 10.05802414 10.2734375 8.92578125 C9.31695312 8.39339844 8.36046875 7.86101563 7.375 7.3125 C6.41335937 6.79300781 5.45171875 6.27351562 4.4609375 5.73828125 C1.94440861 3.96073307 1.05403072 2.84588294 0 0 Z " fill="#73A1F0" transform="translate(217,829)"/>
<path d="M0 0 C0.33 0.66 0.66 1.32 1 2 C-0.77479455 7.22578394 -2.81188075 10.2646504 -7 14 C-7.66 13.67 -8.32 13.34 -9 13 C-7.50923566 9.7173068 -5.61379679 7.06922559 -3.375 4.25 C-2.74335937 3.45078125 -2.11171875 2.6515625 -1.4609375 1.828125 C-0.97882812 1.22484375 -0.49671875 0.6215625 0 0 Z " fill="#6C66EA" transform="translate(653,785)"/>
<path d="M0 0 C3.62371148 1.36215054 6.91384974 2.97476489 10.25 4.9375 C11.12140625 5.44152344 11.9928125 5.94554687 12.890625 6.46484375 C15 8 15 8 16 11 C12.37628852 9.63784946 9.08615026 8.02523511 5.75 6.0625 C4.87859375 5.55847656 4.0071875 5.05445313 3.109375 4.53515625 C1 3 1 3 0 0 Z " fill="#5EC4F0" transform="translate(440,374)"/>
<path d="M0 0 C-3.65518842 1.98790949 -6.88434902 2.41204986 -11 3 C-11.721875 3.37125 -12.44375 3.7425 -13.1875 4.125 C-15.56093693 5.27079714 -16.55048321 4.8420214 -19 4 C-20.33158758 3.65975979 -21.66472616 3.325473 -23 3 C-15.21726112 0.95062675 -8.06510168 -0.49155247 0 0 Z " fill="#27AEE5" transform="translate(484,285)"/>
<path d="M0 0 C0.33 0 0.66 0 1 0 C0.88501733 2.20887757 0.75756495 4.41710787 0.625 6.625 C0.55539062 7.85476563 0.48578125 9.08453125 0.4140625 10.3515625 C0.01697386 13.85043785 -0.78940238 16.70868771 -2 20 C-2.36106097 21.66088045 -2.70462173 23.32618981 -3 25 C-3.33 25 -3.66 25 -4 25 C-4.21908649 18.97512156 -3.49398047 13.82450494 -2 8 C-1.80921875 7.22527344 -1.6184375 6.45054687 -1.421875 5.65234375 C-0.95615457 3.76617601 -0.47925183 1.88277506 0 0 Z " fill="#63C7F0" transform="translate(300,441)"/>
<path d="M0 0 C1.52835982 3.05671964 0.77871069 5.79798812 0 9 C-1.21283327 12.38705878 -2.57180855 15.6985528 -4 19 C-5.14453125 17.44921875 -5.14453125 17.44921875 -6 15 C-5.35543142 12.44797509 -4.65205263 10.23503964 -3.6875 7.8125 C-3.32881836 6.85053711 -3.32881836 6.85053711 -2.96289062 5.86914062 C-1.18849649 1.18849649 -1.18849649 1.18849649 0 0 Z " fill="#3AB8EA" transform="translate(308,415)"/>
<path d="M0 0 C1.55908934 4.67726802 -0.02067402 8.5921393 -2 13 C-3.87071295 15.14609709 -5.60497565 16.4033171 -8 18 C-8 14.65753317 -7.50371733 13.92878663 -5.6875 11.25 C-3.31525066 7.61075385 -1.59709425 4.03476441 0 0 Z " fill="#5E5BE9" transform="translate(767,619)"/>
<path d="M0 0 C4.6029598 1.72497507 8.93255824 3.9095871 13.3125 6.125 C14.05306641 6.49753906 14.79363281 6.87007812 15.55664062 7.25390625 C17.37201217 8.16744806 19.18613282 9.08347487 21 10 C18 11 18 11 15.73046875 10.07421875 C14.47169922 9.38779297 14.47169922 9.38779297 13.1875 8.6875 C10.24087257 7.1217009 7.70947518 5.91180497 4.5 4.9375 C2 4 2 4 0.625 1.875 C0.41875 1.25625 0.2125 0.6375 0 0 Z " fill="#3D78E8" transform="translate(378,701)"/>
<path d="M0 0 C0.99 0.33 1.98 0.66 3 1 C1.12855305 1.82065069 -0.74734336 2.6311584 -2.625 3.4375 C-3.66914062 3.88996094 -4.71328125 4.34242188 -5.7890625 4.80859375 C-8.88685251 5.95801705 -11.73210054 6.57311223 -15 7 C-15 7.66 -15 8.32 -15 9 C-16.32 8.67 -17.64 8.34 -19 8 C-16.27257997 5.27257997 -13.09339794 4.56925244 -9.5 3.4375 C-4.65529298 1.96028251 -4.65529298 1.96028251 0 0 Z " fill="#5353E9" transform="translate(720,664)"/>
<path d="M0 0 C2.33088789 2.87854637 3.83224797 5.61984828 5.1875 9.0625 C5.53167969 9.91972656 5.87585938 10.77695312 6.23046875 11.66015625 C7 14 7 14 7 17 C7.66 17 8.32 17 9 17 C9.33 17.99 9.66 18.98 10 20 C9.34 20.99 8.68 21.98 8 23 C6.6582322 19.73256344 5.32805641 16.46053092 4 13.1875 C3.6184375 12.25873047 3.236875 11.32996094 2.84375 10.37304688 C2.4828125 9.48037109 2.121875 8.58769531 1.75 7.66796875 C1.41484375 6.84578857 1.0796875 6.0236084 0.734375 5.17651367 C0 3 0 3 0 0 Z " fill="#3973EA" transform="translate(726,396)"/>
<path d="M0 0 C0.66 0.66 1.32 1.32 2 2 C-3 5 -8 8 -13 11 C-13.33 10.34 -13.66 9.68 -14 9 C-9.38 6.03 -4.76 3.06 0 0 Z " fill="#77A3F2" transform="translate(614,511)"/>
<path d="M0 0 C0.33 0 0.66 0 1 0 C1 3.96 1 7.92 1 12 C1.66 12.33 2.32 12.66 3 13 C2.01 15.31 1.02 17.62 0 20 C-0.33 20 -0.66 20 -1 20 C-1.11381955 13.23405981 -0.88021369 6.71162938 0 0 Z " fill="#4B66EA" transform="translate(745,507)"/>
<path d="M0 0 C1.21816406 0.03480469 1.21816406 0.03480469 2.4609375 0.0703125 C3.68683594 0.09738281 3.68683594 0.09738281 4.9375 0.125 C5.87722656 0.15980469 5.87722656 0.15980469 6.8359375 0.1953125 C6.8359375 0.8553125 6.8359375 1.5153125 6.8359375 2.1953125 C9.1459375 2.5253125 11.4559375 2.8553125 13.8359375 3.1953125 C13.8359375 3.5253125 13.8359375 3.8553125 13.8359375 4.1953125 C7.80693063 3.68290143 1.81589107 3.1255275 -4.1640625 2.1953125 C-2.1640625 0.1953125 -2.1640625 0.1953125 0 0 Z " fill="#35B1EA" transform="translate(545.1640625,257.8046875)"/>
<path d="M0 0 C-0.66 0 -1.32 0 -2 0 C-2 0.66 -2 1.32 -2 2 C-3.74784829 2.36463732 -5.49840502 2.7163078 -7.25 3.0625 C-8.71179688 3.35833984 -8.71179688 3.35833984 -10.203125 3.66015625 C-12.868119 3.98397535 -14.48871723 3.85503199 -17 3 C-14.92085336 2.29994051 -12.83648414 1.61537756 -10.75 0.9375 C-9.58984375 0.55464844 -8.4296875 0.17179688 -7.234375 -0.22265625 C-4.19922915 -0.95211763 -2.84296787 -1.11889082 0 0 Z " fill="#5B5EEB" transform="translate(681,678)"/>
<path d="M0 0 C0.66 1.32 1.32 2.64 2 4 C1.34 4 0.68 4 0 4 C-0.12117187 4.60328125 -0.24234375 5.2065625 -0.3671875 5.828125 C-0.61855469 7.02695312 -0.61855469 7.02695312 -0.875 8.25 C-1.03742187 9.03890625 -1.19984375 9.8278125 -1.3671875 10.640625 C-1.99150075 12.96831144 -2.84838542 14.89031952 -4 17 C-4.99 16.67 -5.98 16.34 -7 16 C-6.34 15.67 -5.68 15.34 -5 15 C-2.98868294 10.53450707 -1.52272384 5.93185362 -2 1 C-1.34 0.67 -0.68 0.34 0 0 Z " fill="#838BF1" transform="translate(598,695)"/>
<path d="M0 0 C1.36420006 4.09260018 -0.2335485 6.47012659 -1.9375 10.1875 C-2.22818359 10.84169922 -2.51886719 11.49589844 -2.81835938 12.16992188 C-3.53695343 13.78381344 -4.2673588 15.39243655 -5 17 C-6.28497537 13.14507389 -5.4052209 11.59653164 -4.0625 7.8125 C-3.68222656 6.72582031 -3.30195312 5.63914062 -2.91015625 4.51953125 C-2.60980469 3.68808594 -2.30945313 2.85664062 -2 2 C-1.34 2 -0.68 2 0 2 C0 1.34 0 0.68 0 0 Z " fill="#505EE9" transform="translate(659,646)"/>
<path d="M0 0 C3.57942411 4.22164268 3.42929372 6.59089913 3 12 C2.34 12.99 1.68 13.98 1 15 C-0.32286246 10.03926578 -0.08893197 5.08888488 0 0 Z " fill="#5175EA" transform="translate(743,452)"/>
<path d="M0 0 C0.66 0 1.32 0 2 0 C1.88529863 1.75070517 1.75780972 3.50057536 1.625 5.25 C1.55539062 6.22453125 1.48578125 7.1990625 1.4140625 8.203125 C1.01534751 10.89633189 0.36492937 12.66963279 -1 15 C-1.02703381 13.06257659 -1.04641125 11.12504521 -1.0625 9.1875 C-1.07410156 8.10855469 -1.08570313 7.02960938 -1.09765625 5.91796875 C-1 3 -1 3 0 0 Z " fill="#2DB6EA" transform="translate(268,444)"/>
<path d="M0 0 C0.66 0.99 1.32 1.98 2 3 C0.68 5.31 -0.64 7.62 -2 10 C-2.66 10 -3.32 10 -4 10 C-4.33 10.66 -4.66 11.32 -5 12 C-4.39009109 8.44219804 -3.4216319 5.3171411 -2 2 C-1.34 2 -0.68 2 0 2 C0 1.34 0 0.68 0 0 Z " fill="#646DEB" transform="translate(642,667)"/>
<path d="M0 0 C0.66 0.99 1.32 1.98 2 3 C1.319375 4.051875 1.319375 4.051875 0.625 5.125 C-1.10149052 7.96533862 -1.10149052 7.96533862 -2.0625 11.1875 C-3 14 -3 14 -5 16 C-3.90301833 10.30860098 -2.45946923 5.25432063 0 0 Z " fill="#868EF2" transform="translate(732,579)"/>
<path d="M0 0 C0.66 0.33 1.32 0.66 2 1 C0 4 0 4 -2.625 4.6875 C-3.40875 4.790625 -4.1925 4.89375 -5 5 C-5.33 5.99 -5.66 6.98 -6 8 C-7.32 7.67 -8.64 7.34 -10 7 C-6.7 4.69 -3.4 2.38 0 0 Z " fill="#30B7E8" transform="translate(392,315)"/>
<path d="M0 0 C0.33 0 0.66 0 1 0 C0.88557539 1.60495567 0.75805306 3.20898119 0.625 4.8125 C0.55539062 5.70582031 0.48578125 6.59914063 0.4140625 7.51953125 C0 10 0 10 -2 13 C-2.95024979 9.30458414 -2.95024979 6.69541586 -2 3 C-1.34 3 -0.68 3 0 3 C0 2.01 0 1.02 0 0 Z " fill="#586DEB" transform="translate(613,632)"/>
<path d="M0 0 C0 0.99 0 1.98 0 3 C-2.1171875 4.640625 -2.1171875 4.640625 -4.875 6.25 C-5.77992188 6.79140625 -6.68484375 7.3328125 -7.6171875 7.890625 C-8.40351562 8.25671875 -9.18984375 8.6228125 -10 9 C-10.66 8.67 -11.32 8.34 -12 8 C-8.04 5.36 -4.08 2.72 0 0 Z " fill="#74A3F1" transform="translate(553,549)"/>
<path d="M0 0 C7.42857143 1 7.42857143 1 11 2 C10.67 2.99 10.34 3.98 10 5 C7.36 4.34 4.72 3.68 2 3 C2 2.34 2 1.68 2 1 C1.34 0.67 0.68 0.34 0 0 Z " fill="#749CF0" transform="translate(248,844)"/>
<path d="M0 0 C1.10844919 3.32534757 0.84454356 5.62182575 0 9 C-0.66 9 -1.32 9 -2 9 C-2.66 10.32 -3.32 11.64 -4 13 C-3.40895235 8.15340923 -2.02055843 4.39251833 0 0 Z " fill="#5064E9" transform="translate(671,590)"/>
<path d="M0 0 C1 3 1 3 0.3125 5.5 C-1.11413528 8.21740054 -2.43428575 9.37504764 -5 11 C-5 9.02 -5 7.04 -5 5 C-3.68 4.67 -2.36 4.34 -1 4 C-0.67 2.68 -0.34 1.36 0 0 Z " fill="#42C1EB" transform="translate(285,396)"/>
<path d="M0 0 C5.44693314 -0.09688221 10.63904667 -0.12862175 16 1 C16 1.33 16 1.66 16 2 C12.7 2.33 9.4 2.66 6 3 C6 2.34 6 1.68 6 1 C4.02 1 2.04 1 0 1 C0 0.67 0 0.34 0 0 Z " fill="#22A6E5" transform="translate(522,285)"/>
<path d="M0 0 C1.45945288 0.08708669 2.91765868 0.19526907 4.375 0.3125 C5.59316406 0.39951172 5.59316406 0.39951172 6.8359375 0.48828125 C9 1 9 1 11 4 C8.03 3.67 5.06 3.34 2 3 C2 2.34 2 1.68 2 1 C1.34 0.67 0.68 0.34 0 0 Z " fill="#5D83ED" transform="translate(427,722)"/>
<path d="M0 0 C-1.28524261 0.86380259 -2.57842419 1.71580369 -3.875 2.5625 C-4.59429687 3.03816406 -5.31359375 3.51382812 -6.0546875 4.00390625 C-6.69664062 4.33261719 -7.33859375 4.66132813 -8 5 C-8.66 4.67 -9.32 4.34 -10 4 C-9.67 3.01 -9.34 2.02 -9 1 C-2.63157895 -1.31578947 -2.63157895 -1.31578947 0 0 Z " fill="#30BCE9" transform="translate(383,289)"/>
<path d="M0 0 C-0.33 0.66 -0.66 1.32 -1 2 C-4.23097953 2.86159454 -6.22486274 3.30597523 -9.375 2.0625 C-9.91125 1.711875 -10.4475 1.36125 -11 1 C-6.8204355 -1.78637633 -4.85331323 -0.79562512 0 0 Z " fill="#52C3ED" transform="translate(491,285)"/>
<path d="M0 0 C0.66 0.66 1.32 1.32 2 2 C-0.31 4.64 -2.62 7.28 -5 10 C-5 8 -5 6 -5 4 C-4.01 4 -3.02 4 -2 4 C-1.34 2.68 -0.68 1.36 0 0 Z " fill="#4B73E8" transform="translate(486,652)"/>
<path d="M0 0 C0 4.38968456 -2.12805101 5.76905739 -5 9 C-5.33 7.68 -5.66 6.36 -6 5 C-4.02 3.35 -2.04 1.7 0 0 Z " fill="#2FBBE9" transform="translate(321,339)"/>
<path d="M0 0 C4.05281712 1.22527029 7.44360764 2.69880494 11 5 C10.01 5.495 10.01 5.495 9 6 C2.4375 3.65625 2.4375 3.65625 0 0 Z " fill="#63B2EB" transform="translate(792,184)"/>
<path d="M0 0 C5.75 -0.125 5.75 -0.125 8 1 C8 1.66 8 2.32 8 3 C8.66 3.33 9.32 3.66 10 4 C5.78087253 3.5205537 3.20336822 2.83374881 0 0 Z " fill="#749AEA" transform="translate(234,840)"/>
<path d="M0 0 C1.79275866 3.11910856 2.34290718 5.67682428 2.625 9.25 C2.69976562 10.14203125 2.77453125 11.0340625 2.8515625 11.953125 C2.92503906 12.96632813 2.92503906 12.96632813 3 14 C2.566875 13.1028125 2.566875 13.1028125 2.125 12.1875 C0.95257974 9.80672208 0.95257974 9.80672208 -1 7 C-0.625 3.3125 -0.625 3.3125 0 0 Z " fill="#67A7E3" transform="translate(172,760)"/>
<path d="M0 0 C-3.3 0 -6.6 0 -10 0 C-10.33 -0.66 -10.66 -1.32 -11 -2 C-6.3657546 -3.48957888 -4.01235915 -2.6749061 0 0 Z " fill="#56C1EE" transform="translate(527,287)"/>
<path d="M0 0 C1.65 0 3.3 0 5 0 C5.99 1.98 6.98 3.96 8 6 C4.08597051 4.73058503 2.20927127 3.48832306 0 0 Z " fill="#4786EA" transform="translate(374,664)"/>
<path d="M0 0 C0 3.39593478 -0.52165948 4.06619881 -2.5 6.6875 C-2.9640625 7.31011719 -3.428125 7.93273437 -3.90625 8.57421875 C-4.2671875 9.04472656 -4.628125 9.51523437 -5 10 C-5 6.73204297 -4.42149484 4.9178052 -3 2 C-2.01 1.34 -1.02 0.68 0 0 Z " fill="#26B6E7" transform="translate(311,352)"/>
<path d="M0 0 C0.99 0.66 1.98 1.32 3 2 C0.60490662 4.89932357 -1.31245243 5.50168276 -5 6 C-3.35 4.02 -1.7 2.04 0 0 Z " fill="#39BBE9" transform="translate(373,328)"/>
<path d="M0 0 C-2.31 1.65 -4.62 3.3 -7 5 C-7.66 4.67 -8.32 4.34 -9 4 C-8.67 3.01 -8.34 2.02 -8 1 C-2.59770115 -1.29885057 -2.59770115 -1.29885057 0 0 Z " fill="#4771E7" transform="translate(498,647)"/>
<path d="M0 0 C1.04449911 3.13349732 0.93423645 3.98968256 0 7 C-0.66 7 -1.32 7 -2 7 C-2.33 7.66 -2.66 8.32 -3 9 C-2.67 6.69 -2.34 4.38 -2 2 C-1.34 2 -0.68 2 0 2 C0 1.34 0 0.68 0 0 Z " fill="#5E6DEA" transform="translate(560,743)"/>
<path d="M0 0 C1 3 1 3 1 5 C2.65 5.33 4.3 5.66 6 6 C2.37673261 7.2077558 1.35853631 6.54311128 -2 5 C-1.34 3.35 -0.68 1.7 0 0 Z " fill="#878CF1" transform="translate(626,707)"/>
<path d="M0 0 C1.485 0.99 1.485 0.99 3 2 C2.67 4.31 2.34 6.62 2 9 C0.4375 7.875 0.4375 7.875 -1 6 C-0.6875 2.8125 -0.6875 2.8125 0 0 Z " fill="#7690F0" transform="translate(745,465)"/>
<path d="M0 0 C0 3 0 3 -1.3125 4.38671875 C-2.875 5.59114583 -4.4375 6.79557292 -6 8 C-6.33 7.01 -6.66 6.02 -7 5 C-6.21625 4.54625 -5.4325 4.0925 -4.625 3.625 C-1.96301969 2.11571258 -1.96301969 2.11571258 0 0 Z " fill="#26B7E7" transform="translate(329,330)"/>
<path d="M0 0 C0.33 0 0.66 0 1 0 C1 1.65 1 3.3 1 5 C0.67 5 0.34 5 0 5 C0 3.35 0 1.7 0 0 Z " fill="#57CFE6" transform="translate(168,463)"/>
<path d="M0 0 C0.33 0 0.66 0 1 0 C1 1.65 1 3.3 1 5 C0.67 5 0.34 5 0 5 C0 3.35 0 1.7 0 0 Z " fill="#56D2E4" transform="translate(168,407)"/>
<path d="M0 0 C1 4 1 4 1 4 Z " fill="#5FC3E6" transform="translate(168,592)"/>
<path d="M0 0 C1 4 1 4 1 4 Z " fill="#57CEE5" transform="translate(168,472)"/>
<path d="M0 0 C1 4 1 4 1 4 Z " fill="#53D4E4" transform="translate(168,376)"/>
<path d="M0 0 C1 4 1 4 1 4 Z " fill="#53D5E3" transform="translate(168,336)"/>
<path d="M0 0 C1 4 1 4 1 4 Z " fill="#55D5E2" transform="translate(168,280)"/>
<path d="M0 0 C3 1 3 1 3 1 Z " fill="#897BE1" transform="translate(649,853)"/>
<path d="M0 0 C3 1 3 1 3 1 Z " fill="#8184E2" transform="translate(529,853)"/>
<path d="M0 0 C3 1 3 1 3 1 Z " fill="#7C8DE2" transform="translate(409,853)"/>
<path d="M0 0 C3 1 3 1 3 1 Z " fill="#8C74DB" transform="translate(747,852)"/>
<path d="" fill="#6CB4E9" transform="translate(0,0)"/>
<path d="" fill="#5FC0E7" transform="translate(0,0)"/>
<path d="" fill="#5DC6E6" transform="translate(0,0)"/>
<path d="" fill="#58CCE5" transform="translate(0,0)"/>
<path d="" fill="#57CEE5" transform="translate(0,0)"/>
<path d="" fill="#57D1E5" transform="translate(0,0)"/>
<path d="" fill="#55D4E4" transform="translate(0,0)"/>
<path d="M0 0 C0.33 0.66 0.66 1.32 1 2 C0.34 1.67 -0.32 1.34 -1 1 C-0.67 0.67 -0.34 0.34 0 0 Z " fill="#60CAEE" transform="translate(433,374)"/>
<path d="" fill="#55D5E5" transform="translate(0,0)"/>
<path d="M0 0 C2 1 2 1 2 1 Z " fill="#8D79E0" transform="translate(704,853)"/>
<path d="M0 0 C2 1 2 1 2 1 Z " fill="#8B79E0" transform="translate(688,853)"/>
<path d="" fill="#759FE2" transform="translate(0,0)"/>
<path d="" fill="#6FA7E1" transform="translate(0,0)"/>
<path d="" fill="#6AB5E8" transform="translate(0,0)"/>
<path d="" fill="#67B5E8" transform="translate(0,0)"/>
<path d="" fill="#68B6E7" transform="translate(0,0)"/>
<path d="" fill="#65BAE8" transform="translate(0,0)"/>
<path d="" fill="#60C0E7" transform="translate(0,0)"/>
<path d="M0 0 C2 1 2 1 2 1 Z " fill="#75AAEF" transform="translate(460,605)"/>
<path d="" fill="#5FC4E6" transform="translate(0,0)"/>
<path d="M0 0 C2 1 2 1 2 1 Z " fill="#76A8EF" transform="translate(481,592)"/>
<path d="M0 0 C2 1 2 1 2 1 Z " fill="#79A5F0" transform="translate(545,552)"/>
<path d="" fill="#5BC8E5" transform="translate(0,0)"/>
<path d="M0 0 C2 1 2 1 2 1 Z " fill="#7AA8F0" transform="translate(609,512)"/>
<path d="" fill="#57D1E5" transform="translate(0,0)"/>
<path d="" fill="#55D5E5" transform="translate(0,0)"/>
<path d="" fill="#55D3E5" transform="translate(0,0)"/>
<path d="" fill="#55D5E3" transform="translate(0,0)"/>
<path d="" fill="#5A6581" transform="translate(0,0)"/>
<path d="" fill="#8979DD" transform="translate(0,0)"/>
<path d="" fill="#8D78DE" transform="translate(0,0)"/>
<path d="" fill="#8E77DE" transform="translate(0,0)"/>
<path d="" fill="#8E79DE" transform="translate(0,0)"/>
<path d="" fill="#8C7AE0" transform="translate(0,0)"/>
<path d="" fill="#8C79E1" transform="translate(0,0)"/>
<path d="" fill="#8A7BE0" transform="translate(0,0)"/>
<path d="" fill="#897BE2" transform="translate(0,0)"/>
<path d="" fill="#8B7DE1" transform="translate(0,0)"/>
<path d="" fill="#897CE0" transform="translate(0,0)"/>
<path d="" fill="#877EE1" transform="translate(0,0)"/>
<path d="" fill="#887EE0" transform="translate(0,0)"/>
<path d="" fill="#867FE1" transform="translate(0,0)"/>
<path d="" fill="#8580E2" transform="translate(0,0)"/>
<path d="" fill="#8682E3" transform="translate(0,0)"/>
<path d="" fill="#8384E1" transform="translate(0,0)"/>
<path d="" fill="#8287E3" transform="translate(0,0)"/>
<path d="" fill="#7E89E2" transform="translate(0,0)"/>
<path d="" fill="#7E88E3" transform="translate(0,0)"/>
<path d="" fill="#7E8AE3" transform="translate(0,0)"/>
<path d="" fill="#7E8CE4" transform="translate(0,0)"/>
<path d="" fill="#7E8CE4" transform="translate(0,0)"/>
<path d="" fill="#7D8DE3" transform="translate(0,0)"/>
<path d="" fill="#7A91E3" transform="translate(0,0)"/>
<path d="" fill="#7C8FE3" transform="translate(0,0)"/>
<path d="" fill="#7C92E5" transform="translate(0,0)"/>
<path d="" fill="#7C95E4" transform="translate(0,0)"/>
<path d="" fill="#8A79DF" transform="translate(0,0)"/>
<path d="" fill="#7A94E3" transform="translate(0,0)"/>
<path d="" fill="#7997E0" transform="translate(0,0)"/>
<path d="" fill="#8E73DA" transform="translate(0,0)"/>
<path d="" fill="#9175DC" transform="translate(0,0)"/>
<path d="" fill="#7998E0" transform="translate(0,0)"/>
<path d="" fill="#8E75D7" transform="translate(0,0)"/>
<path d="" fill="#769CE3" transform="translate(0,0)"/>
<path d="" fill="#7799E1" transform="translate(0,0)"/>
<path d="" fill="#759BE2" transform="translate(0,0)"/>
<path d="" fill="#769EE4" transform="translate(0,0)"/>
<path d="" fill="#906FDA" transform="translate(0,0)"/>
<path d="" fill="#916EDB" transform="translate(0,0)"/>
<path d="" fill="#73A2E3" transform="translate(0,0)"/>
<path d="" fill="#936FDB" transform="translate(0,0)"/>
<path d="" fill="#6FA4E2" transform="translate(0,0)"/>
<path d="" fill="#9473DC" transform="translate(0,0)"/>
<path d="" fill="#6EACE4" transform="translate(0,0)"/>
<path d="" fill="#6DABE5" transform="translate(0,0)"/>
<path d="" fill="#70B1E8" transform="translate(0,0)"/>
<path d="" fill="#6BB2E7" transform="translate(0,0)"/>
<path d="" fill="#6DB4EA" transform="translate(0,0)"/>
<path d="" fill="#6BB4E9" transform="translate(0,0)"/>
<path d="" fill="#68B7E9" transform="translate(0,0)"/>
<path d="" fill="#68BAE7" transform="translate(0,0)"/>
<path d="" fill="#66BCE9" transform="translate(0,0)"/>
<path d="" fill="#65BDE9" transform="translate(0,0)"/>
<path d="" fill="#8E7CE6" transform="translate(0,0)"/>
<path d="" fill="#8D82E7" transform="translate(0,0)"/>
<path d="" fill="#8D81E6" transform="translate(0,0)"/>
<path d="" fill="#75AAEE" transform="translate(0,0)"/>
<path d="" fill="#61C4E7" transform="translate(0,0)"/>
<path d="" fill="#5FC2E6" transform="translate(0,0)"/>
<path d="" fill="#8B83E6" transform="translate(0,0)"/>
<path d="" fill="#5EC3E6" transform="translate(0,0)"/>
<path d="" fill="#5DC5E7" transform="translate(0,0)"/>
<path d="" fill="#5DC5E6" transform="translate(0,0)"/>
<path d="" fill="#7CA9F0" transform="translate(0,0)"/>
<path d="" fill="#78ABEF" transform="translate(0,0)"/>
<path d="" fill="#78A9F1" transform="translate(0,0)"/>
<path d="" fill="#77A8F1" transform="translate(0,0)"/>
<path d="" fill="#78A8F1" transform="translate(0,0)"/>
<path d="" fill="#78AAF0" transform="translate(0,0)"/>
<path d="" fill="#8787E6" transform="translate(0,0)"/>
<path d="" fill="#5ACAE8" transform="translate(0,0)"/>
<path d="" fill="#5AC8E6" transform="translate(0,0)"/>
<path d="" fill="#7BABF2" transform="translate(0,0)"/>
<path d="" fill="#59CBE6" transform="translate(0,0)"/>
<path d="" fill="#79A8F1" transform="translate(0,0)"/>
<path d="" fill="#5ACCE8" transform="translate(0,0)"/>
<path d="" fill="#57CCE6" transform="translate(0,0)"/>
<path d="" fill="#5ACBE5" transform="translate(0,0)"/>
<path d="" fill="#7BACF3" transform="translate(0,0)"/>
<path d="" fill="#57CDE5" transform="translate(0,0)"/>
<path d="" fill="#79ABF0" transform="translate(0,0)"/>
<path d="" fill="#78ABF1" transform="translate(0,0)"/>
<path d="" fill="#59CFE6" transform="translate(0,0)"/>
<path d="" fill="#79AEF4" transform="translate(0,0)"/>
<path d="" fill="#57CFE6" transform="translate(0,0)"/>
<path d="" fill="#79AEF1" transform="translate(0,0)"/>
<path d="" fill="#8091E8" transform="translate(0,0)"/>
<path d="" fill="#77ADF0" transform="translate(0,0)"/>
<path d="" fill="#57D0E6" transform="translate(0,0)"/>
<path d="" fill="#76B3F0" transform="translate(0,0)"/>
<path d="" fill="#56CFE6" transform="translate(0,0)"/>
<path d="" fill="#58D1E8" transform="translate(0,0)"/>
<path d="" fill="#73B3F3" transform="translate(0,0)"/>
<path d="" fill="#72B6F4" transform="translate(0,0)"/>
<path d="" fill="#56D3E5" transform="translate(0,0)"/>
<path d="" fill="#70B8F1" transform="translate(0,0)"/>
<path d="" fill="#6CBAF1" transform="translate(0,0)"/>
<path d="" fill="#56D0E4" transform="translate(0,0)"/>
<path d="" fill="#6CBBF0" transform="translate(0,0)"/>
<path d="" fill="#6CBFF2" transform="translate(0,0)"/>
<path d="" fill="#57D4E6" transform="translate(0,0)"/>
<path d="" fill="#69BFEF" transform="translate(0,0)"/>
<path d="" fill="#55D5E6" transform="translate(0,0)"/>
<path d="" fill="#67C3F1" transform="translate(0,0)"/>
<path d="" fill="#66C5F0" transform="translate(0,0)"/>
<path d="" fill="#66C4F1" transform="translate(0,0)"/>
<path d="" fill="#53D4E4" transform="translate(0,0)"/>
<path d="" fill="#55D5E5" transform="translate(0,0)"/>
<path d="" fill="#52D5E3" transform="translate(0,0)"/>
<path d="" fill="#62C9EE" transform="translate(0,0)"/>
<path d="" fill="#62C8EC" transform="translate(0,0)"/>
<path d="" fill="#61CAED" transform="translate(0,0)"/>
<path d="" fill="#55D4E5" transform="translate(0,0)"/>
<path d="" fill="#55D5E4" transform="translate(0,0)"/>
<path d="" fill="#55D7E5" transform="translate(0,0)"/>
<path d="" fill="#749CE9" transform="translate(0,0)"/>
<path d="" fill="#55D5E4" transform="translate(0,0)"/>
<path d="" fill="#54D6E5" transform="translate(0,0)"/>
<path d="" fill="#51D7E4" transform="translate(0,0)"/>
<path d="" fill="#739FE7" transform="translate(0,0)"/>
<path d="" fill="#53D7E3" transform="translate(0,0)"/>
<path d="" fill="#54D7E3" transform="translate(0,0)"/>
<path d="" fill="#52D5E2" transform="translate(0,0)"/>
<path d="" fill="#55D8E4" transform="translate(0,0)"/>
<path d="" fill="#55D6E2" transform="translate(0,0)"/>
<path d="" fill="#71A1E5" transform="translate(0,0)"/>
<path d="" fill="#71A3E2" transform="translate(0,0)"/>
<path d="" fill="#6FA3E2" transform="translate(0,0)"/>
<path d="" fill="#55D6E2" transform="translate(0,0)"/>
<path d="" fill="#56D6DF" transform="translate(0,0)"/>
<path d="" fill="#66B2E1" transform="translate(0,0)"/>
<path d="" fill="#63B8E4" transform="translate(0,0)"/>
<path d="" fill="#64B8E4" transform="translate(0,0)"/>
<path d="" fill="#56D8DE" transform="translate(0,0)"/>
</svg>
